<svg width="356" height="212" viewBox="0 0 356 212" fill="none" xmlns="http://www.w3.org/2000/svg">
<g clip-path="url(#clip0_58_103)">
<g clip-path="url(#clip1_58_103)">
<rect width="523" height="408.285" transform="translate(-81 -44.1909)" fill="white"/>
<rect width="523" height="408.285" transform="translate(-81 -44.1909)" fill="#DCE1FF" fill-opacity="0.4"/>
<path opacity="0.3" d="M60.8512 -50.3583V260.202L-84.7007 318.455" stroke="#2962FF" stroke-opacity="0.6" stroke-width="0.5" stroke-linecap="round" stroke-linejoin="round"/>
<path opacity="0.3" d="M84.2875 -50.3583V259.85L-84.7007 344.359" stroke="#2962FF" stroke-opacity="0.6" stroke-width="0.5" stroke-linecap="round" stroke-linejoin="round"/>
<path opacity="0.3" d="M107.724 -50.3583V260.238L-84.7007 388.764" stroke="#2962FF" stroke-opacity="0.6" stroke-width="0.5" stroke-linecap="round" stroke-linejoin="round"/>
<path opacity="0.3" d="M131.16 -50.3583V260.181L-84.7007 476.342" stroke="#2962FF" stroke-opacity="0.6" stroke-width="0.5" stroke-linecap="round" stroke-linejoin="round"/>
<path opacity="0.3" d="M154.596 -50.3583V260.181L47.2827 476.342" stroke="#2962FF" stroke-opacity="0.6" stroke-width="0.5" stroke-linecap="round" stroke-linejoin="round"/>
<path opacity="0.3" d="M178.789 -50.3583V260.181L178.51 476.342" stroke="#2962FF" stroke-opacity="0.6" stroke-width="0.5" stroke-linecap="round" stroke-linejoin="round"/>
<path opacity="0.3" d="M202.703 -50.3583V260.181L310.016 476.342" stroke="#2962FF" stroke-opacity="0.6" stroke-width="0.5" stroke-linecap="round" stroke-linejoin="round"/>
<path opacity="0.3" d="M226.139 -50.3583V260.181L442 476.342" stroke="#2962FF" stroke-opacity="0.6" stroke-width="0.5" stroke-linecap="round" stroke-linejoin="round"/>
<path opacity="0.3" d="M249.575 -50.3583V260.096L442 388.764" stroke="#2962FF" stroke-opacity="0.6" stroke-width="0.5" stroke-linecap="round" stroke-linejoin="round"/>
<path opacity="0.3" d="M273.012 -50.3583V259.761L442 344.359" stroke="#2962FF" stroke-opacity="0.6" stroke-width="0.5" stroke-linecap="round" stroke-linejoin="round"/>
<path opacity="0.3" d="M296.448 -50.3583V260.14L442 318.455" stroke="#2962FF" stroke-opacity="0.6" stroke-width="0.5" stroke-linecap="round" stroke-linejoin="round"/>
<path opacity="0.3" d="M319.884 -50.3583V259.332L442 299.953" stroke="#2962FF" stroke-opacity="0.6" stroke-width="0.5" stroke-linecap="round" stroke-linejoin="round"/>
<path opacity="0.3" d="M343.32 -50.3583V259.51L442 287.618" stroke="#2962FF" stroke-opacity="0.6" stroke-width="0.5" stroke-linecap="round" stroke-linejoin="round"/>
<path opacity="0.3" d="M-84.7007 287.618L13.9786 259.545V-50.3583" stroke="#2962FF" stroke-opacity="0.6" stroke-width="0.5" stroke-linecap="round" stroke-linejoin="round"/>
<path opacity="0.3" d="M37.4149 -50.3583V259.377L-84.7007 299.953" stroke="#2962FF" stroke-opacity="0.6" stroke-width="0.5" stroke-linecap="round" stroke-linejoin="round"/>
<path opacity="0.3" d="M-84.7007 188.939H442" stroke="#2962FF" stroke-opacity="0.6" stroke-width="0.5" stroke-linecap="round" stroke-linejoin="round"/>
<path opacity="0.3" d="M-84.7007 165.502H442" stroke="#2962FF" stroke-opacity="0.6" stroke-width="0.5" stroke-linecap="round" stroke-linejoin="round"/>
<path opacity="0.3" d="M-84.7007 142.066H442" stroke="#2962FF" stroke-opacity="0.6" stroke-width="0.5" stroke-linecap="round" stroke-linejoin="round"/>
<path opacity="0.3" d="M-84.7007 118.013H442" stroke="#2962FF" stroke-opacity="0.6" stroke-width="0.5" stroke-linecap="round" stroke-linejoin="round"/>
<path opacity="0.3" d="M-84.7007 94.5767H442" stroke="#2962FF" stroke-opacity="0.6" stroke-width="0.5" stroke-linecap="round" stroke-linejoin="round"/>
<path opacity="0.3" d="M-84.7007 71.1404H442" stroke="#2962FF" stroke-opacity="0.6" stroke-width="0.5" stroke-linecap="round" stroke-linejoin="round"/>
<path opacity="0.3" d="M-84.7007 47.7043H442" stroke="#2962FF" stroke-opacity="0.6" stroke-width="0.5" stroke-linecap="round" stroke-linejoin="round"/>
<path opacity="0.3" d="M-84.7007 24.2679H442" stroke="#2962FF" stroke-opacity="0.6" stroke-width="0.5" stroke-linecap="round" stroke-linejoin="round"/>
<path opacity="0.3" d="M-84.7007 0.831589H442" stroke="#2962FF" stroke-opacity="0.6" stroke-width="0.5" stroke-linecap="round" stroke-linejoin="round"/>
<path d="M155.925 13.2947C155.98 13.0135 156.284 12.9541 156.332 13.2365C156.335 13.2575 156.339 13.2794 156.343 13.3024C156.366 13.4317 156.46 13.5358 156.59 13.5555C157.201 13.6481 158.563 13.6182 159.028 13.6183C171.986 13.6213 184.945 13.6257 197.902 13.6086C198.15 13.6082 198.272 13.6173 198.425 13.5738C198.601 13.5237 198.701 13.3495 198.724 13.1677C198.733 13.0932 198.746 13.0271 198.772 12.9353C198.799 12.8381 198.892 12.7754 198.993 12.7818C199.1 12.7886 199.186 12.8719 199.202 12.9782C199.235 13.2062 199.296 13.511 199.375 13.5167C204.283 13.7891 207.743 12.8276 211.714 16.6868C216.05 20.9005 214.819 28.2811 214.815 34.0533L214.803 55.9018C214.802 57.0063 215.697 57.9022 216.801 57.9029L230.38 57.9115C231.426 57.9121 232.291 58.7173 232.318 59.7629C232.402 63.1355 232.269 68.1488 232.268 70.8505L232.27 96.8906L232.264 128.944C232.264 133.541 232.428 139.419 232.277 144.217C232.245 145.214 231.465 146.017 230.467 146.041C228.921 146.078 227.193 146.041 225.825 146.042L216.818 146.039C215.7 146.039 214.799 146.955 214.812 148.073C214.9 156.023 214.737 164.046 214.813 171.984C214.843 175.174 214.686 178.996 214.824 182.143C214.833 182.343 214.885 182.556 215.046 182.674C215.223 182.803 215.259 182.601 215.598 182.806C215.685 182.86 215.714 182.971 215.676 183.066C215.642 183.15 215.562 183.206 215.472 183.209C215.448 183.21 215.425 183.212 215.401 183.213C214.718 183.255 214.814 183.609 214.793 184.356C214.662 189.058 215.655 192.818 212.071 196.687C209.867 199.066 207.337 200.086 204.146 200.227L157.643 200.232L142.417 200.242C140.217 200.242 136.305 200.354 134.198 200.162C132.617 200.029 131.087 199.538 129.725 198.724C127.467 197.374 125.184 194.593 124.618 192.014C124.247 190.321 124.345 187.283 124.346 185.446L124.347 176.278L124.35 140.839L124.356 62.2353L124.346 36.4544C124.346 32.0794 124.335 27.6717 124.373 23.2959C124.386 21.7627 125.047 20.0077 125.845 18.702C127.232 16.4574 129.4 14.8044 131.933 14.0605C135.213 13.0882 147.137 13.8623 151.215 13.6202C152.242 13.5592 154.564 13.7303 155.667 13.5544C155.8 13.5332 155.9 13.4269 155.925 13.2947Z" fill="#2962FF" fill-opacity="0.7"/>
<path d="M136.349 20.7988C140.355 20.6394 145.576 20.7676 149.662 20.7624C149.887 27.7647 156.376 27.2774 161.403 27.282L170.603 27.2844L178.611 27.2793C183.932 27.2789 189.079 27.5945 189.752 20.7795C194.155 20.7698 199.959 20.4267 204.14 21.0734C210.159 22.0041 208.772 31.6838 208.77 35.8583L208.771 57.8974L152.906 57.9058C151.825 57.906 150.938 58.7662 150.922 59.8479C150.867 63.5858 150.939 67.5439 150.939 71.2189L150.938 96.2458C150.937 111.986 150.707 128.339 150.93 144.086C150.946 145.167 151.819 146.038 152.9 146.05C167.653 146.221 182.814 146.035 197.569 146.036L208.77 146.023C208.667 149.365 208.758 153.237 208.758 156.615L208.751 175.869C208.754 178.323 208.956 185.708 208.695 187.736C208.574 188.744 208.199 189.706 207.607 190.53C204.948 194.275 199.257 193.267 195.149 193.267H177.225L150.466 193.275C145.786 193.28 141.06 193.347 136.386 193.202C133.726 193.117 130.863 190.551 130.585 187.894C130.342 185.566 130.435 183.013 130.442 180.638L130.453 169.326L130.451 129.794L130.454 60.7475L130.452 38.1988C130.451 34.5572 130.387 30.9021 130.444 27.2637C130.502 23.5976 132.789 21.2537 136.349 20.7988Z" fill="#DCE1FF"/>
<path d="M230.584 70.9468C230.836 70.9592 231 71 231.132 71.0691C231.576 72.0504 231.246 129.905 231.289 143.17C231.293 144.286 230.39 145.199 229.274 145.199L152.525 145.203C152.177 145.161 151.884 144.946 151.835 144.598C151.581 142.803 151.751 137.608 151.751 136.498L151.742 120.433L151.746 70.9641L230.584 70.9468Z" fill="#DCE1FF"/>
<path d="M162.18 121.265C162.252 121.176 162.384 121.165 162.47 121.241C165.356 123.813 168.295 126.736 171.136 129.411C171.216 129.487 171.22 129.614 171.144 129.694C168.415 132.583 165.655 135.442 162.865 138.272C162.824 138.314 162.766 138.337 162.708 138.325C161.998 138.174 160.894 136.997 160.269 136.371C160.193 136.294 160.19 136.17 160.264 136.09C162.211 134.008 164.206 131.971 166.248 129.983C166.33 129.903 166.329 129.771 166.246 129.693C164.233 127.802 162.248 125.881 160.291 123.932C160.224 123.865 160.213 123.759 160.268 123.681C160.713 123.05 161.651 121.922 162.18 121.265Z" fill="#2962FF"/>
<path d="M172.644 134.884L185.927 134.862L185.925 138.104L172.644 138.109L172.644 134.884Z" fill="#2962FF"/>
<path d="M133.809 14.4489C134.246 14.4278 134.684 14.4158 135.122 14.4129L183.83 14.4114L198.217 14.4011C200.435 14.3998 203.906 14.1548 205.86 14.543C213.421 16.0447 214.515 22.3575 214.001 28.9278C213.89 30.3497 213.996 32.4372 213.995 33.8042L213.992 57.8974L209.608 57.8993L209.615 37.8621C209.617 32.2846 211.316 21.2436 204.088 20.2211C200.491 19.7123 192.797 19.8344 189.003 20.033C188.351 27.021 184.344 26.2815 178.721 26.2821L169.527 26.2794L160.85 26.2775C154.68 26.2922 151.44 27.1403 150.346 20.0528C148.293 19.8133 136.99 19.7591 135.204 20.193C133.824 20.5266 132.563 21.2315 131.556 22.2314C129.927 23.8591 129.688 25.4735 129.672 27.6426L129.676 134.862L129.673 170.346L129.669 181.568C129.671 185.25 128.995 189.111 131.802 191.898C132.731 192.816 133.885 193.471 135.149 193.802C137.079 194.311 145.075 194.087 147.408 194.081L184.526 194.072L195.938 194.091C201.051 194.106 208.313 195.148 209.519 187.822C209.801 186.108 209.622 183.685 209.62 181.884L209.611 171.012L209.612 155.302C209.614 152.45 209.709 148.811 209.531 146.029H213.988L213.981 176.613L214.011 185.347C214.025 188.708 214.413 191.867 212.481 194.817C211.027 197.069 208.731 198.648 206.106 199.198C204.105 199.607 197.982 199.43 195.639 199.426L176.247 199.428L148.894 199.424C144.745 199.432 140.591 199.454 136.445 199.447C133.889 199.466 131.793 199.16 129.666 197.674C124.883 194.334 125.158 190.764 125.155 185.674L125.159 175.632L125.164 138.558L125.161 62.1786L125.169 37.872C125.16 33.248 125.115 28.6227 125.173 23.9993C125.236 18.8401 128.904 15.3432 133.809 14.4489Z" fill="#EFF0FF"/>
<path d="M162.4 20.0149C166.197 19.8372 172.781 19.9989 176.797 20.0579C177.063 20.062 177.125 20.2583 177.207 20.4196L176.99 20.8563C175.215 20.8691 162.852 21.0927 162.141 20.6435L162.087 20.3527L162.4 20.0149Z" fill="#2962FF" fill-opacity="0.8"/>
<path d="M151.751 60.7047C151.752 59.6009 152.647 58.7067 153.751 58.7068L229.255 58.7132C230.382 58.7133 231.286 59.6443 231.271 60.7713C231.229 63.8628 231.274 67.0756 231.273 70.1148C223.705 70.3499 214.737 70.1192 207.041 70.1184L151.741 70.1426L151.751 60.7047Z" fill="#DCE1FF"/>
<circle cx="216.5" cy="64.5" r="1.5" fill="#2962FF" fill-opacity="0.8"/>
<circle cx="221.5" cy="64.5" r="1.5" fill="#2962FF" fill-opacity="0.8"/>
<circle cx="226.5" cy="64.5" r="1.5" fill="#2962FF" fill-opacity="0.8"/>
</g>
</g>
<rect x="0.75" y="0.75" width="354.5" height="210.5" rx="19.25" stroke="#2962FF" stroke-opacity="0.2" stroke-width="1.5"/>
<defs>
<clipPath id="clip0_58_103">
<rect width="356" height="212" rx="20" fill="white"/>
</clipPath>
<clipPath id="clip1_58_103">
<rect width="523" height="408.285" fill="white" transform="translate(-81 -44.1909)"/>
</clipPath>
</defs>
</svg>
