<svg width="356" height="212" viewBox="0 0 356 212" fill="none" xmlns="http://www.w3.org/2000/svg">
<g clip-path="url(#clip0_97_1264)">
<g clip-path="url(#clip1_97_1264)">
<rect width="523" height="408.285" transform="translate(-81 -44.1909)" fill="#003AB3" fill-opacity="0.4"/>
<path opacity="0.3" d="M60.8512 -50.3583V260.202L-84.7007 318.455" stroke="#2962FF" stroke-opacity="0.6" stroke-width="0.5" stroke-linecap="round" stroke-linejoin="round"/>
<path opacity="0.3" d="M84.2875 -50.3583V259.85L-84.7007 344.359" stroke="#2962FF" stroke-opacity="0.6" stroke-width="0.5" stroke-linecap="round" stroke-linejoin="round"/>
<path opacity="0.3" d="M107.724 -50.3583V260.238L-84.7007 388.764" stroke="#2962FF" stroke-opacity="0.6" stroke-width="0.5" stroke-linecap="round" stroke-linejoin="round"/>
<path opacity="0.3" d="M131.16 -50.3583V260.181L-84.7007 476.342" stroke="#2962FF" stroke-opacity="0.6" stroke-width="0.5" stroke-linecap="round" stroke-linejoin="round"/>
<path opacity="0.3" d="M154.596 -50.3583V260.181L47.2827 476.342" stroke="#2962FF" stroke-opacity="0.6" stroke-width="0.5" stroke-linecap="round" stroke-linejoin="round"/>
<path opacity="0.3" d="M178.789 -50.3583V260.181L178.51 476.342" stroke="#2962FF" stroke-opacity="0.6" stroke-width="0.5" stroke-linecap="round" stroke-linejoin="round"/>
<path opacity="0.3" d="M202.703 -50.3583V260.181L310.016 476.342" stroke="#2962FF" stroke-opacity="0.6" stroke-width="0.5" stroke-linecap="round" stroke-linejoin="round"/>
<path opacity="0.3" d="M226.139 -50.3583V260.181L442 476.342" stroke="#2962FF" stroke-opacity="0.6" stroke-width="0.5" stroke-linecap="round" stroke-linejoin="round"/>
<path opacity="0.3" d="M249.575 -50.3583V260.096L442 388.764" stroke="#2962FF" stroke-opacity="0.6" stroke-width="0.5" stroke-linecap="round" stroke-linejoin="round"/>
<path opacity="0.3" d="M273.012 -50.3583V259.761L442 344.359" stroke="#2962FF" stroke-opacity="0.6" stroke-width="0.5" stroke-linecap="round" stroke-linejoin="round"/>
<path opacity="0.3" d="M296.448 -50.3583V260.14L442 318.455" stroke="#2962FF" stroke-opacity="0.6" stroke-width="0.5" stroke-linecap="round" stroke-linejoin="round"/>
<path opacity="0.3" d="M319.884 -50.3583V259.332L442 299.953" stroke="#2962FF" stroke-opacity="0.6" stroke-width="0.5" stroke-linecap="round" stroke-linejoin="round"/>
<path opacity="0.3" d="M343.32 -50.3583V259.51L442 287.618" stroke="#2962FF" stroke-opacity="0.6" stroke-width="0.5" stroke-linecap="round" stroke-linejoin="round"/>
<path opacity="0.3" d="M-84.7007 287.618L13.9786 259.545V-50.3583" stroke="#2962FF" stroke-opacity="0.6" stroke-width="0.5" stroke-linecap="round" stroke-linejoin="round"/>
<path opacity="0.3" d="M37.4149 -50.3583V259.377L-84.7007 299.953" stroke="#2962FF" stroke-opacity="0.6" stroke-width="0.5" stroke-linecap="round" stroke-linejoin="round"/>
<path opacity="0.3" d="M-84.7007 188.939H442" stroke="#2962FF" stroke-opacity="0.6" stroke-width="0.5" stroke-linecap="round" stroke-linejoin="round"/>
<path opacity="0.3" d="M-84.7007 165.502H442" stroke="#2962FF" stroke-opacity="0.6" stroke-width="0.5" stroke-linecap="round" stroke-linejoin="round"/>
<path opacity="0.3" d="M-84.7007 142.066H442" stroke="#2962FF" stroke-opacity="0.6" stroke-width="0.5" stroke-linecap="round" stroke-linejoin="round"/>
<path opacity="0.3" d="M-84.7007 118.013H442" stroke="#2962FF" stroke-opacity="0.6" stroke-width="0.5" stroke-linecap="round" stroke-linejoin="round"/>
<path opacity="0.3" d="M-84.7007 94.5767H442" stroke="#2962FF" stroke-opacity="0.6" stroke-width="0.5" stroke-linecap="round" stroke-linejoin="round"/>
<path opacity="0.3" d="M-84.7007 71.1404H442" stroke="#2962FF" stroke-opacity="0.6" stroke-width="0.5" stroke-linecap="round" stroke-linejoin="round"/>
<path opacity="0.3" d="M-84.7007 47.7043H442" stroke="#2962FF" stroke-opacity="0.6" stroke-width="0.5" stroke-linecap="round" stroke-linejoin="round"/>
<path opacity="0.3" d="M-84.7007 24.2679H442" stroke="#2962FF" stroke-opacity="0.6" stroke-width="0.5" stroke-linecap="round" stroke-linejoin="round"/>
<path opacity="0.3" d="M-84.7007 0.831589H442" stroke="#2962FF" stroke-opacity="0.6" stroke-width="0.5" stroke-linecap="round" stroke-linejoin="round"/>
<path d="M145.196 64.4578C153.541 59.4824 162.546 54.6263 170.742 49.5251C176.003 52.4763 181.249 55.4558 186.478 58.4636C189.764 60.3402 193.441 62.3427 196.64 64.3184C196.495 73.5882 196.779 83.1395 196.558 92.3319C193.623 94.0348 190.493 95.9316 187.536 97.5509C190.594 99.3329 193.768 101.128 196.793 102.948L196.796 111.544C199.181 110.187 201.547 108.796 203.892 107.37C211.463 111.46 218.865 116.178 226.391 120.376C227.542 121.018 228.877 121.797 229.977 122.518C230.192 124.363 230.017 129.228 230.017 131.344L230.05 150.572C222.641 154.944 213.727 159.874 206.588 164.443L206.309 164.534L204.017 165.975C202.023 164.975 198.711 162.899 196.701 161.715C196.726 164.194 196.79 166.754 196.662 169.224C194.763 170.582 190.385 173.001 188.257 174.258L171.089 184.364L145.21 169.378L145.194 159.659L138.431 163.733C129.721 158.569 120.967 153.481 112.168 148.47C112.047 145.32 112.141 141.671 112.139 138.463L112.121 119.837C112.561 119.528 113.162 119.175 113.629 118.882L114.446 118.377C115.715 117.7 117.275 116.698 118.527 115.937C116.592 114.841 114.254 113.591 112.452 112.349C112.825 103.136 112.264 93.6167 112.481 84.3803C112.493 83.8697 113.025 83.6418 113.402 83.3783L114.3 82.8608C119.601 79.791 124.886 76.6929 130.154 73.5662C132.515 72.1775 136.34 69.7873 138.656 68.7157C140.68 69.8751 143.169 71.3968 145.206 72.4385L145.196 64.4578Z" fill="#B6C4FF" fill-opacity="0.7"/>
<path d="M138.566 69.6523C139.741 70.1427 144.159 72.8504 145.493 73.5909C151.493 76.9219 157.446 80.6396 163.492 83.8895C155.38 88.3938 146.596 93.7703 138.607 98.5285C137.667 98.3745 116.201 85.7132 113.751 84.2504C116.23 82.6442 119.517 80.8407 122.1 79.322L138.566 69.6523Z" fill="#002780"/>
<path d="M171.018 89.0034C172.027 89.4215 177.409 92.6698 178.546 93.3301L195.651 103.251L171.162 117.501C170.685 117.497 148.281 104.396 146.444 103.335L171.018 89.0034Z" fill="#002780"/>
<path d="M170.609 50.6731C171.335 50.6366 192.941 63.2074 195.33 64.5989L171.105 78.8031C170.493 78.789 148.8 66.1077 146.473 64.7719C154.296 60.0172 162.67 55.3096 170.609 50.6731Z" fill="#002780"/>
<path d="M146.267 141.382C153.907 145.844 163.249 151.639 170.944 155.674C170.788 164.729 170.914 174.17 170.918 183.261L146.147 168.84L146.187 151.556C146.19 148.387 146.095 144.503 146.267 141.382Z" fill="#003AB3"/>
<path d="M113.056 120.913C114.978 121.798 119.299 124.459 121.322 125.643C126.893 128.943 132.485 132.206 138.099 135.433L138.067 162.374C137.184 162.132 132.026 158.928 130.948 158.296L113.084 147.903C112.971 138.978 113.063 129.854 113.056 120.913Z" fill="#003AB3"/>
<path d="M146.229 104.27L170.744 118.42L170.758 136.846C170.761 138.757 170.882 144.172 170.682 145.772C168.519 144.357 165.239 142.583 162.946 141.248L146.183 131.565C146.319 122.546 146.228 113.306 146.229 104.27Z" fill="#003AB3"/>
<path d="M195.792 104.164C195.945 104.792 195.887 111.046 195.887 111.927L195.907 131.435C188.182 136.347 179.5 141 171.619 145.821C171.437 145.192 171.534 138.659 171.54 137.397L171.588 118.184L195.792 104.164Z" fill="#003AB3"/>
<path d="M195.634 141.411C195.642 141.418 195.651 141.424 195.657 141.432C196.108 142.208 195.79 165.854 195.783 168.814L171.724 183.036C171.4 182.474 171.538 158.271 171.539 155.596L195.634 141.411Z" fill="#003AB3"/>
<path d="M113.299 85.1184C115.182 85.9876 119.508 88.6609 121.521 89.8265L137.962 99.3581L137.949 126.073C130.08 121.733 121.031 116.398 113.29 111.788L113.299 85.1184Z" fill="#003AB3"/>
<path d="M228.852 123.544C229.304 124.124 229.104 147.345 229.102 150.095C221.073 154.983 212.819 159.578 204.782 164.511C204.434 164.178 204.572 140.271 204.571 137.671L228.852 123.544Z" fill="#003AB3"/>
<path d="M203.885 108.363C206.372 109.646 209.475 111.568 211.936 112.999L228.629 122.672C224.046 125.301 219.477 127.953 214.92 130.629C211.383 132.585 207.659 134.868 204.154 136.927C202.839 136.138 196.924 133.015 196.425 132.176C196.593 132.015 196.871 131.769 196.857 131.507C196.767 129.841 196.791 128.171 196.791 126.504L196.796 112.562C198.925 111.425 201.756 109.628 203.885 108.363Z" fill="#002780"/>
<path d="M195.564 65.4729C195.73 66.2248 195.654 71.9084 195.652 73.1873L195.64 91.7993C192.775 93.4649 189.475 95.2954 186.726 97.0739C183.625 95.1789 180.208 93.2879 177.043 91.4619L171.502 88.2439L171.506 79.5841C179.512 74.8593 187.595 70.2556 195.564 65.4729Z" fill="#003AB3"/>
<path d="M153.192 136.64C154.839 137.473 157.337 139.024 159.022 140.003L171.065 147.031C176.937 143.735 182.949 140.048 188.814 136.645C190.929 137.925 193.3 139.238 195.454 140.482C193.287 141.798 191.105 143.087 188.906 144.349C183.064 147.874 176.85 151.305 171.099 154.917C168.493 153.201 165.099 151.347 162.344 149.738L146.559 140.515C148.779 139.24 150.99 137.948 153.192 136.64Z" fill="#002780"/>
<path d="M163.559 84.8564C163.952 85.2472 163.794 91.2788 163.791 92.2355L145.266 102.959C145.19 109.405 145.249 115.966 145.249 122.421C143.474 123.599 141.122 124.923 139.26 126.043L139.018 125.984C138.614 124.812 138.909 102.224 138.909 99.3063C146.755 95.0564 155.693 89.4138 163.559 84.8564Z" fill="#003AB3"/>
<path d="M195.354 132.818L203.624 137.633L203.665 164.778L199.966 162.596L196.774 160.68L196.77 140.313C194.457 138.865 192.009 137.502 189.626 136.168L195.354 132.818Z" fill="#003AB3"/>
<path d="M119.323 116.496C119.908 116.64 124.332 119.245 125.1 119.689L138.439 127.408C140.479 126.356 143.23 124.666 145.274 123.485L145.24 130.913C144.255 131.402 142.951 132.237 141.981 132.819L138.579 134.81C130.223 129.812 121.831 124.878 113.402 120.007L119.323 116.496Z" fill="#002780"/>
<path d="M146.158 65.5688C146.91 65.8541 152.242 69.0413 153.323 69.6672L170.455 79.6039C170.442 82.4851 170.469 85.3662 170.535 88.2463C169.881 88.6489 169.143 89.0561 168.472 89.4448C167.382 90.138 165.882 90.944 164.736 91.6008L164.733 83.681C163.069 82.5384 160.017 80.872 158.205 79.826C154.205 77.5066 150.187 75.2188 146.152 72.9628L146.158 65.5688Z" fill="#003AB3"/>
<path d="M144.821 132.048C145.505 132.003 151.368 135.571 152.36 136.133C149.965 137.488 147.588 138.875 145.231 140.295L145.221 158.622L143.927 159.496C142.31 160.367 140.538 161.442 138.93 162.367C139.086 153.504 138.981 144.388 138.967 135.519C140.944 134.428 142.889 133.221 144.821 132.048Z" fill="#003AB3"/>
<path d="M232.895 29.8755C235.237 30.7068 240.459 33.8028 242.868 35.2097C247.215 37.7478 252.18 40.3821 256.4 43.0501C256.256 51.3373 256.552 59.7695 256.271 68.053C249.661 72.4038 240.138 77.64 233.177 81.635C225.661 77.2706 216.825 72.5548 209.606 67.9955C209.657 59.807 209.655 51.6186 209.6 43.4301C216.817 39.0616 225.517 33.8359 232.895 29.8755Z" fill="#B6C4FF" fill-opacity="0.7"/>
<path d="M232.749 30.7755C234.509 31.0499 251.995 41.5393 255.14 43.2282C247.933 47.5382 240.69 51.7874 233.411 55.9743C232.33 56.1068 213.768 45.1326 210.97 43.6276C217.06 40.5011 226.676 34.4195 232.749 30.7755Z" fill="#002780"/>
<path d="M210.66 44.2755C218.034 48.2848 225.536 52.7204 232.835 56.9075L232.854 80.4828L210.647 67.7622L210.66 44.2755Z" fill="#003AB3"/>
<path d="M255.113 44.2307C255.73 45.1187 255.426 65.0384 255.418 67.675C248.327 71.9169 241.146 75.9838 234.072 80.2755C233.372 79.4752 233.7 59.4299 233.707 56.8181C240.872 52.6739 248.008 48.4784 255.113 44.2307Z" fill="#003AB3"/>
<path d="M113.402 83.3783C113.233 82.526 113.152 82.2979 113.64 81.6216L113.984 81.6213C114.398 82.1712 114.265 82.0305 114.3 82.8608L113.402 83.3783Z" fill="#003AB3"/>
</g>
</g>
<rect x="0.75" y="0.75" width="354.5" height="210.5" rx="19.25" stroke="#B6C4FF" stroke-opacity="0.2" stroke-width="1.5"/>
<defs>
<clipPath id="clip0_97_1264">
<rect width="356" height="212" rx="20" fill="white"/>
</clipPath>
<clipPath id="clip1_97_1264">
<rect width="523" height="408.285" fill="white" transform="translate(-81 -44.1909)"/>
</clipPath>
</defs>
</svg>
