<svg width="356" height="212" viewBox="0 0 356 212" fill="none" xmlns="http://www.w3.org/2000/svg">
<g clip-path="url(#clip0_97_1599)">
<g clip-path="url(#clip1_97_1599)">
<rect width="523" height="408.285" transform="translate(-81 -44.1909)" fill="white"/>
<rect width="523" height="408.285" transform="translate(-81 -44.1909)" fill="#DCE1FF" fill-opacity="0.4"/>
<path opacity="0.3" d="M60.8512 -50.3583V260.202L-84.7007 318.455" stroke="#2962FF" stroke-opacity="0.6" stroke-width="0.5" stroke-linecap="round" stroke-linejoin="round"/>
<path opacity="0.3" d="M84.2875 -50.3583V259.85L-84.7007 344.359" stroke="#2962FF" stroke-opacity="0.6" stroke-width="0.5" stroke-linecap="round" stroke-linejoin="round"/>
<path opacity="0.3" d="M107.724 -50.3583V260.238L-84.7007 388.764" stroke="#2962FF" stroke-opacity="0.6" stroke-width="0.5" stroke-linecap="round" stroke-linejoin="round"/>
<path opacity="0.3" d="M131.16 -50.3583V260.181L-84.7007 476.342" stroke="#2962FF" stroke-opacity="0.6" stroke-width="0.5" stroke-linecap="round" stroke-linejoin="round"/>
<path opacity="0.3" d="M154.596 -50.3583V260.181L47.2827 476.342" stroke="#2962FF" stroke-opacity="0.6" stroke-width="0.5" stroke-linecap="round" stroke-linejoin="round"/>
<path opacity="0.3" d="M178.789 -50.3583V260.181L178.51 476.342" stroke="#2962FF" stroke-opacity="0.6" stroke-width="0.5" stroke-linecap="round" stroke-linejoin="round"/>
<path opacity="0.3" d="M202.703 -50.3583V260.181L310.016 476.342" stroke="#2962FF" stroke-opacity="0.6" stroke-width="0.5" stroke-linecap="round" stroke-linejoin="round"/>
<path opacity="0.3" d="M226.139 -50.3583V260.181L442 476.342" stroke="#2962FF" stroke-opacity="0.6" stroke-width="0.5" stroke-linecap="round" stroke-linejoin="round"/>
<path opacity="0.3" d="M249.575 -50.3583V260.096L442 388.764" stroke="#2962FF" stroke-opacity="0.6" stroke-width="0.5" stroke-linecap="round" stroke-linejoin="round"/>
<path opacity="0.3" d="M273.012 -50.3583V259.761L442 344.359" stroke="#2962FF" stroke-opacity="0.6" stroke-width="0.5" stroke-linecap="round" stroke-linejoin="round"/>
<path opacity="0.3" d="M296.448 -50.3583V260.14L442 318.455" stroke="#2962FF" stroke-opacity="0.6" stroke-width="0.5" stroke-linecap="round" stroke-linejoin="round"/>
<path opacity="0.3" d="M319.884 -50.3583V259.332L442 299.953" stroke="#2962FF" stroke-opacity="0.6" stroke-width="0.5" stroke-linecap="round" stroke-linejoin="round"/>
<path opacity="0.3" d="M343.32 -50.3583V259.51L442 287.618" stroke="#2962FF" stroke-opacity="0.6" stroke-width="0.5" stroke-linecap="round" stroke-linejoin="round"/>
<path opacity="0.3" d="M-84.7007 287.618L13.9786 259.545V-50.3583" stroke="#2962FF" stroke-opacity="0.6" stroke-width="0.5" stroke-linecap="round" stroke-linejoin="round"/>
<path opacity="0.3" d="M37.4149 -50.3583V259.377L-84.7007 299.953" stroke="#2962FF" stroke-opacity="0.6" stroke-width="0.5" stroke-linecap="round" stroke-linejoin="round"/>
<path opacity="0.3" d="M-84.7007 188.939H442" stroke="#2962FF" stroke-opacity="0.6" stroke-width="0.5" stroke-linecap="round" stroke-linejoin="round"/>
<path opacity="0.3" d="M-84.7007 165.502H442" stroke="#2962FF" stroke-opacity="0.6" stroke-width="0.5" stroke-linecap="round" stroke-linejoin="round"/>
<path opacity="0.3" d="M-84.7007 142.066H442" stroke="#2962FF" stroke-opacity="0.6" stroke-width="0.5" stroke-linecap="round" stroke-linejoin="round"/>
<path opacity="0.3" d="M-84.7007 118.013H442" stroke="#2962FF" stroke-opacity="0.6" stroke-width="0.5" stroke-linecap="round" stroke-linejoin="round"/>
<path opacity="0.3" d="M-84.7007 94.5767H442" stroke="#2962FF" stroke-opacity="0.6" stroke-width="0.5" stroke-linecap="round" stroke-linejoin="round"/>
<path opacity="0.3" d="M-84.7007 71.1404H442" stroke="#2962FF" stroke-opacity="0.6" stroke-width="0.5" stroke-linecap="round" stroke-linejoin="round"/>
<path opacity="0.3" d="M-84.7007 47.7043H442" stroke="#2962FF" stroke-opacity="0.6" stroke-width="0.5" stroke-linecap="round" stroke-linejoin="round"/>
<path opacity="0.3" d="M-84.7007 24.2679H442" stroke="#2962FF" stroke-opacity="0.6" stroke-width="0.5" stroke-linecap="round" stroke-linejoin="round"/>
<path opacity="0.3" d="M-84.7007 0.831589H442" stroke="#2962FF" stroke-opacity="0.6" stroke-width="0.5" stroke-linecap="round" stroke-linejoin="round"/>
</g>
<path d="M142.196 69.4578C150.541 64.4824 159.546 59.6263 167.742 54.5251C173.003 57.4763 178.249 60.4558 183.478 63.4636C186.764 65.3402 190.441 67.3427 193.64 69.3184C193.495 78.5882 193.779 88.1395 193.558 97.3319C190.623 99.0348 187.493 100.932 184.536 102.551C187.594 104.333 190.768 106.128 193.793 107.948L193.796 116.544C196.181 115.187 198.547 113.796 200.892 112.37C208.463 116.46 215.865 121.178 223.391 125.376C224.542 126.018 225.877 126.797 226.977 127.518C227.192 129.363 227.017 134.228 227.017 136.344L227.05 155.572C219.641 159.944 210.727 164.874 203.588 169.443L203.309 169.534L201.017 170.975C199.023 169.975 195.711 167.899 193.701 166.715C193.726 169.194 193.79 171.754 193.662 174.224C191.763 175.582 187.385 178.001 185.257 179.258L168.089 189.364L142.21 174.378L142.194 164.659L135.431 168.733C126.721 163.569 117.967 158.481 109.168 153.47C109.047 150.32 109.141 146.671 109.139 143.463L109.121 124.837C109.561 124.528 110.162 124.175 110.629 123.882L111.446 123.377C112.715 122.7 114.275 121.698 115.527 120.937C113.592 119.841 111.254 118.591 109.452 117.349C109.825 108.136 109.264 98.6167 109.481 89.3803C109.493 88.8697 110.025 88.6418 110.402 88.3783L111.3 87.8608C116.601 84.791 121.886 81.6929 127.154 78.5662C129.515 77.1775 133.34 74.7873 135.656 73.7157C137.68 74.8751 140.169 76.3968 142.206 77.4385L142.196 69.4578Z" fill="#2962FF" fill-opacity="0.7"/>
<path d="M135.566 74.6525C136.741 75.1429 141.159 77.8505 142.493 78.591C148.493 81.922 154.446 85.6398 160.492 88.8896C152.38 93.3939 143.596 98.7704 135.607 103.529C134.667 103.375 113.201 90.7133 110.751 89.2505C113.23 87.6443 116.517 85.8408 119.1 84.3221L135.566 74.6525Z" fill="#EFF0FF"/>
<path d="M168.018 94.0033C169.027 94.4214 174.409 97.6697 175.546 98.33L192.651 108.251L168.162 122.501C167.685 122.497 145.281 109.396 143.444 108.335L168.018 94.0033Z" fill="#EFF0FF"/>
<path d="M167.609 55.6731C168.335 55.6366 189.941 68.2074 192.33 69.5989L168.105 83.8031C167.493 83.789 145.8 71.1077 143.473 69.7719C151.296 65.0172 159.67 60.3096 167.609 55.6731Z" fill="#EFF0FF"/>
<path d="M143.267 146.382C150.907 150.844 160.249 156.639 167.944 160.674C167.788 169.729 167.914 179.17 167.918 188.261L143.147 173.84L143.187 156.556C143.19 153.387 143.095 149.503 143.267 146.382Z" fill="#DCE1FF"/>
<path d="M110.056 125.913C111.978 126.798 116.299 129.459 118.322 130.643C123.893 133.942 129.485 137.206 135.099 140.433L135.067 167.374C134.184 167.131 129.026 163.927 127.948 163.295L110.084 152.902C109.971 143.978 110.063 134.854 110.056 125.913Z" fill="#DCE1FF"/>
<path d="M143.229 109.269L167.744 123.42L167.758 141.846C167.761 143.757 167.882 149.172 167.682 150.772C165.519 149.356 162.239 147.583 159.946 146.248L143.183 136.565C143.319 127.546 143.228 118.306 143.229 109.269Z" fill="#DCE1FF"/>
<path d="M192.792 109.164C192.945 109.792 192.887 116.046 192.887 116.927L192.907 136.435C185.182 141.347 176.5 146 168.619 150.821C168.437 150.192 168.534 143.659 168.54 142.397L168.588 123.184L192.792 109.164Z" fill="#DCE1FF"/>
<path d="M192.634 146.411C192.642 146.418 192.651 146.423 192.657 146.432C193.108 147.208 192.79 170.854 192.783 173.814L168.724 188.036C168.4 187.474 168.538 163.271 168.539 160.596L192.634 146.411Z" fill="#DCE1FF"/>
<path d="M110.299 90.1185C112.182 90.9878 116.508 93.661 118.521 94.8267L134.962 104.358L134.949 131.073C127.08 126.733 118.031 121.398 110.29 116.788L110.299 90.1185Z" fill="#DCE1FF"/>
<path d="M225.852 128.544C226.304 129.123 226.104 152.345 226.102 155.095C218.073 159.982 209.819 164.578 201.782 169.511C201.434 169.178 201.572 145.271 201.571 142.67L225.852 128.544Z" fill="#DCE1FF"/>
<path d="M200.885 113.363C203.372 114.646 206.475 116.568 208.936 117.999L225.629 127.672C221.046 130.301 216.477 132.953 211.92 135.629C208.383 137.585 204.659 139.868 201.154 141.927C199.839 141.138 193.924 138.015 193.425 137.176C193.593 137.015 193.871 136.769 193.857 136.507C193.767 134.841 193.791 133.171 193.791 131.504L193.796 117.562C195.925 116.425 198.756 114.628 200.885 113.363Z" fill="#EFF0FF"/>
<path d="M192.564 70.473C192.73 71.2249 192.654 76.9085 192.652 78.1874L192.64 96.7994C189.775 98.465 186.475 100.296 183.726 102.074C180.625 100.179 177.208 98.288 174.043 96.462L168.502 93.244L168.506 84.5842C176.512 79.8594 184.595 75.2557 192.564 70.473Z" fill="#DCE1FF"/>
<path d="M150.192 141.64C151.839 142.473 154.337 144.024 156.022 145.003L168.065 152.031C173.937 148.735 179.949 145.048 185.814 141.645C187.929 142.925 190.3 144.238 192.454 145.482C190.287 146.798 188.105 148.087 185.906 149.349C180.064 152.874 173.85 156.305 168.099 159.917C165.493 158.201 162.099 156.347 159.344 154.738L143.559 145.515C145.779 144.24 147.99 142.948 150.192 141.64Z" fill="#EFF0FF"/>
<path d="M160.559 89.8564C160.952 90.2472 160.794 96.2788 160.791 97.2355L142.266 107.959C142.19 114.405 142.249 120.966 142.249 127.421C140.474 128.599 138.122 129.923 136.26 131.043L136.018 130.984C135.614 129.812 135.909 107.224 135.909 104.306C143.755 100.056 152.693 94.4138 160.559 89.8564Z" fill="#DCE1FF"/>
<path d="M192.354 137.818L200.624 142.633L200.665 169.778L196.966 167.596L193.774 165.68L193.77 145.313C191.457 143.865 189.009 142.502 186.626 141.168L192.354 137.818Z" fill="#DCE1FF"/>
<path d="M116.323 121.496C116.908 121.64 121.332 124.245 122.1 124.689L135.439 132.408C137.479 131.356 140.23 129.666 142.274 128.485L142.24 135.913C141.255 136.402 139.951 137.237 138.981 137.819L135.579 139.81C127.223 134.812 118.831 129.878 110.402 125.007L116.323 121.496Z" fill="#EFF0FF"/>
<path d="M143.158 70.5687C143.91 70.854 149.242 74.0411 150.323 74.6671L167.455 84.6038C167.442 87.4849 167.469 90.366 167.535 93.2462C166.881 93.6488 166.143 94.056 165.472 94.4447C164.382 95.1379 162.882 95.9439 161.736 96.6007L161.733 88.6809C160.069 87.5383 157.017 85.8719 155.205 84.8259C151.205 82.5065 147.187 80.2187 143.152 77.9627L143.158 70.5687Z" fill="#DCE1FF"/>
<path d="M141.821 137.048C142.505 137.003 148.368 140.57 149.36 141.133C146.965 142.488 144.588 143.875 142.231 145.295L142.221 163.622L140.927 164.495C139.31 165.367 137.538 166.442 135.93 167.367C136.086 158.504 135.981 149.388 135.967 140.519C137.944 139.428 139.889 138.221 141.821 137.048Z" fill="#DCE1FF"/>
<path d="M229.895 34.8755C232.237 35.7068 237.459 38.8028 239.868 40.2097C244.215 42.7478 249.18 45.3821 253.4 48.0501C253.256 56.3373 253.552 64.7695 253.271 73.053C246.661 77.4038 237.138 82.64 230.177 86.635C222.661 82.2706 213.825 77.5548 206.606 72.9955C206.657 64.807 206.655 56.6186 206.6 48.4301C213.817 44.0616 222.517 38.8359 229.895 34.8755Z" fill="#2962FF" fill-opacity="0.7"/>
<path d="M229.749 35.7755C231.509 36.0499 248.995 46.5393 252.14 48.2282C244.933 52.5382 237.69 56.7874 230.411 60.9743C229.33 61.1068 210.768 50.1326 207.97 48.6276C214.06 45.5011 223.676 39.4195 229.749 35.7755Z" fill="#EFF0FF"/>
<path d="M207.66 49.2755C215.034 53.2848 222.536 57.7204 229.835 61.9075L229.854 85.4828L207.647 72.7622L207.66 49.2755Z" fill="#DCE1FF"/>
<path d="M252.113 49.2307C252.73 50.1187 252.426 70.0384 252.418 72.675C245.327 76.9169 238.146 80.9838 231.072 85.2755C230.372 84.4752 230.7 64.4299 230.707 61.8181C237.872 57.6739 245.008 53.4784 252.113 49.2307Z" fill="#DCE1FF"/>
<path d="M110.402 88.3783C110.233 87.526 110.152 87.2979 110.64 86.6216L110.984 86.6213C111.398 87.1712 111.265 87.0305 111.3 87.8608L110.402 88.3783Z" fill="#DCE1FF"/>
</g>
<rect x="0.75" y="0.75" width="354.5" height="210.5" rx="19.25" stroke="#2962FF" stroke-opacity="0.2" stroke-width="1.5"/>
<defs>
<clipPath id="clip0_97_1599">
<rect width="356" height="212" rx="20" fill="white"/>
</clipPath>
<clipPath id="clip1_97_1599">
<rect width="523" height="408.285" fill="white" transform="translate(-81 -44.1909)"/>
</clipPath>
</defs>
</svg>
