<svg width="356" height="212" viewBox="0 0 356 212" fill="none" xmlns="http://www.w3.org/2000/svg">
<g clip-path="url(#clip0_5609_400)">
<g clip-path="url(#clip1_5609_400)">
<rect width="523" height="408.285" transform="translate(-81 -44.1909)" fill="#003AB3" fill-opacity="0.4"/>
<path opacity="0.3" d="M60.8507 -50.3583V260.202L-84.7012 318.455" stroke="#2962FF" stroke-opacity="0.6" stroke-width="0.5" stroke-linecap="round" stroke-linejoin="round"/>
<path opacity="0.3" d="M84.287 -50.3583V259.85L-84.7012 344.359" stroke="#2962FF" stroke-opacity="0.6" stroke-width="0.5" stroke-linecap="round" stroke-linejoin="round"/>
<path opacity="0.3" d="M107.723 -50.3583V260.238L-84.7012 388.764" stroke="#2962FF" stroke-opacity="0.6" stroke-width="0.5" stroke-linecap="round" stroke-linejoin="round"/>
<path opacity="0.3" d="M131.16 -50.3583V260.181L-84.7012 476.342" stroke="#2962FF" stroke-opacity="0.6" stroke-width="0.5" stroke-linecap="round" stroke-linejoin="round"/>
<path opacity="0.3" d="M154.597 -50.3583V260.181L47.2832 476.342" stroke="#2962FF" stroke-opacity="0.6" stroke-width="0.5" stroke-linecap="round" stroke-linejoin="round"/>
<path opacity="0.3" d="M178.788 -50.3583V260.181L178.51 476.342" stroke="#2962FF" stroke-opacity="0.6" stroke-width="0.5" stroke-linecap="round" stroke-linejoin="round"/>
<path opacity="0.3" d="M202.703 -50.3583V260.181L310.017 476.342" stroke="#2962FF" stroke-opacity="0.6" stroke-width="0.5" stroke-linecap="round" stroke-linejoin="round"/>
<path opacity="0.3" d="M226.139 -50.3583V260.181L442 476.342" stroke="#2962FF" stroke-opacity="0.6" stroke-width="0.5" stroke-linecap="round" stroke-linejoin="round"/>
<path opacity="0.3" d="M249.575 -50.3583V260.096L442 388.764" stroke="#2962FF" stroke-opacity="0.6" stroke-width="0.5" stroke-linecap="round" stroke-linejoin="round"/>
<path opacity="0.3" d="M273.012 -50.3583V259.761L442 344.359" stroke="#2962FF" stroke-opacity="0.6" stroke-width="0.5" stroke-linecap="round" stroke-linejoin="round"/>
<path opacity="0.3" d="M296.448 -50.3583V260.14L442 318.455" stroke="#2962FF" stroke-opacity="0.6" stroke-width="0.5" stroke-linecap="round" stroke-linejoin="round"/>
<path opacity="0.3" d="M319.885 -50.3583V259.332L442 299.953" stroke="#2962FF" stroke-opacity="0.6" stroke-width="0.5" stroke-linecap="round" stroke-linejoin="round"/>
<path opacity="0.3" d="M343.32 -50.3583V259.51L442 287.618" stroke="#2962FF" stroke-opacity="0.6" stroke-width="0.5" stroke-linecap="round" stroke-linejoin="round"/>
<path opacity="0.3" d="M-84.7012 287.618L13.9781 259.545V-50.3583" stroke="#2962FF" stroke-opacity="0.6" stroke-width="0.5" stroke-linecap="round" stroke-linejoin="round"/>
<path opacity="0.3" d="M37.4144 -50.3583V259.377L-84.7012 299.953" stroke="#2962FF" stroke-opacity="0.6" stroke-width="0.5" stroke-linecap="round" stroke-linejoin="round"/>
<path opacity="0.3" d="M-84.7012 188.939H441.999" stroke="#2962FF" stroke-opacity="0.6" stroke-width="0.5" stroke-linecap="round" stroke-linejoin="round"/>
<path opacity="0.3" d="M-84.7012 165.502H441.999" stroke="#2962FF" stroke-opacity="0.6" stroke-width="0.5" stroke-linecap="round" stroke-linejoin="round"/>
<path opacity="0.3" d="M-84.7012 142.066H441.999" stroke="#2962FF" stroke-opacity="0.6" stroke-width="0.5" stroke-linecap="round" stroke-linejoin="round"/>
<path opacity="0.3" d="M-84.7012 118.013H441.999" stroke="#2962FF" stroke-opacity="0.6" stroke-width="0.5" stroke-linecap="round" stroke-linejoin="round"/>
<path opacity="0.3" d="M-84.7012 94.5767H441.999" stroke="#2962FF" stroke-opacity="0.6" stroke-width="0.5" stroke-linecap="round" stroke-linejoin="round"/>
<path opacity="0.3" d="M-84.7012 71.1404H441.999" stroke="#2962FF" stroke-opacity="0.6" stroke-width="0.5" stroke-linecap="round" stroke-linejoin="round"/>
<path opacity="0.3" d="M-84.7012 47.7043H441.999" stroke="#2962FF" stroke-opacity="0.6" stroke-width="0.5" stroke-linecap="round" stroke-linejoin="round"/>
<path opacity="0.3" d="M-84.7012 24.2679H441.999" stroke="#2962FF" stroke-opacity="0.6" stroke-width="0.5" stroke-linecap="round" stroke-linejoin="round"/>
<path opacity="0.3" d="M-84.7012 0.831589H441.999" stroke="#2962FF" stroke-opacity="0.6" stroke-width="0.5" stroke-linecap="round" stroke-linejoin="round"/>
</g>
<path d="M163.29 40.2488C170.485 39.2171 179.454 41.5402 185.956 44.5216C186.95 44.9775 188.287 45.9395 187.706 47.2255C186.895 49.0188 183.412 48.1074 181.852 48.27C175.247 48.0068 163.224 52.1705 163.03 59.7864C163.004 60.8441 168.035 66.866 169.081 69.207L169.184 69.4415C168.317 71.061 166.782 72.5366 165.512 73.8799C166.825 75.8624 170.045 79.7281 171.677 81.8256C175.618 86.8948 179.685 92.397 183.788 97.2979C188.053 92.5947 192.32 87.7399 194.283 81.6541C195.291 78.5327 195.538 75.7041 195.583 72.4871C195.703 63.8301 197.511 57.4633 204.118 51.487C210.868 45.3815 217.688 42.7197 226.803 43.0866C228.072 44.0189 231.176 46.3648 232.013 47.5293C231.128 48.8462 228.554 51.6128 227.421 52.8961C224.675 56.0524 221.883 59.1688 219.047 62.2442C219.044 64.558 219.174 66.6838 219.312 68.9864C220.212 69.9484 221.126 70.8981 222.052 71.8354C223.33 71.7971 224.301 71.6969 225.561 71.5541C227.348 69.7306 237.761 57.0852 239.016 56.8329C240.342 56.5663 242.208 58.0434 243.222 58.819C244.516 59.8077 245.194 61.0465 245.376 62.6625C246.117 69.2414 244.031 76.3845 240.461 81.8805C239.265 83.7214 237.812 85.3801 236.458 87.1049L236.608 87.6037C236.157 89.7391 213.273 99.561 209.918 103.353C206.625 107.076 202.67 111.717 199.481 115.541C205.024 122.121 210.957 130.259 216.229 137.15L222.006 144.668C225.313 148.936 228.249 151.873 226.728 157.731C225.593 162.103 222.887 164.897 219.102 167.15C214.436 169.387 208.284 169.491 204.992 164.911C202.84 161.918 200.757 158.877 198.631 155.865C193.681 148.859 188.688 141.884 183.649 134.942C181.592 137.086 177.743 142.175 175.666 144.718L168.77 153.148C164.984 157.78 163.32 159.166 162.245 165.294C160.878 173.09 153.634 181.017 145.502 181.912C143.874 182.107 142.224 181.976 140.648 181.527C138.419 180.881 132.885 177.548 130.892 176.072C128.482 174.141 127.178 170.575 126.956 167.641C126.226 158.015 132.083 149.362 140.929 145.808C142.295 145.259 144.867 143.798 145.823 142.715C148.749 139.401 151.554 135.893 154.378 132.472L170.231 113.462C165.961 107.799 157.142 94.3904 152.081 88.2337C151.972 88.1018 150.733 88.2864 150.156 88.1072C147.78 87.3708 145.535 86.6854 143.105 86.1076C140.998 87.9539 140.292 89.6134 139.589 92.2441C140.03 93.7917 141.12 96.0405 139.724 97.3814C138.249 98.7967 132.76 105.612 131.05 105.745C128.289 105.961 122.864 102.731 120.766 100.838C117.853 98.3373 108.936 89.5758 113.08 85.7651C114.225 84.7117 119.559 78.396 120.75 78.4092C123.795 78.4433 126.026 79.5632 128.558 76.1054C131.524 72.2158 130.074 68.0185 129.582 63.548C134.118 58.7083 138.967 54.0675 143.537 49.2924C149.271 43.2995 155.217 41.1377 163.29 40.2488Z" fill="#2962FF" fill-opacity="0.7"/>
<path d="M203.077 67.3697C206.607 55.6098 218.41 47.3057 230.642 47.6579C226.848 51.7124 223.222 55.9797 219.494 60.0981C218.942 60.7076 218.469 61.2792 217.989 61.9464C217.925 64.0222 218.148 67.615 218.353 69.6606C223.968 75.4814 229.695 81.6562 235.236 87.5725C233.594 88.8999 228.691 91.2907 226.555 92.4761C225.459 91.2547 223.322 88.6464 221.947 88.0961L221.764 88.2691C222.285 89.6634 224.642 91.7234 225.766 92.8C221.717 95.1595 214.181 98.3196 210.951 101.012C205.851 105.263 199.624 113.671 195.316 118.948L173.137 146.005C169.808 150.065 165.914 154.429 163.046 158.83C162.07 160.328 161.547 163.505 161.144 165.379C159.413 173.42 150.93 182.254 142.186 180.737C139.645 180.303 137.384 178.867 135.912 176.751C130.323 168.806 135.566 155.934 143.625 151.763C145.4 150.845 148.449 149.639 149.914 148.462C153.272 145.764 156.152 141.668 158.937 138.312L172.975 121.413L187.69 103.936C191.409 99.563 196.518 94.2373 199.204 89.2861C202.496 83.2189 201.791 75.1892 202.861 68.5349C204.685 70.44 208.041 70.4661 210 71.0001C209.474 69.3674 204.711 69.1363 203.077 67.3697Z" fill="#002780"/>
<path d="M203.077 67.3697C206.607 55.6098 218.41 47.3057 230.642 47.6579C226.848 51.7124 223.222 55.9797 219.494 60.0981C218.942 60.7076 218.469 61.2792 217.989 61.9464C217.925 64.0222 218.148 67.615 218.353 69.6606C223.968 75.4814 229.695 81.6562 235.236 87.5725C233.594 88.8999 228.691 91.2907 226.555 92.4761C225.459 91.2547 223.322 88.6464 221.947 88.0961L221.764 88.2691C222.285 89.6634 224.642 91.7234 225.766 92.8C221.717 95.1595 214.181 98.3196 210.951 101.012C205.851 105.263 199.624 113.671 195.316 118.948L173.137 146.005C169.808 150.065 165.914 154.429 163.046 158.83C162.07 160.328 161.547 163.505 161.144 165.379C159.413 173.42 150.93 182.254 142.186 180.737C139.645 180.303 137.384 178.867 135.912 176.751C130.323 168.806 135.566 155.934 143.625 151.763C145.4 150.845 148.449 149.639 149.914 148.462C153.272 145.764 156.152 141.668 158.937 138.312L172.975 121.413L187.69 103.936C191.409 99.563 196.518 94.2373 199.204 89.2861C202.496 83.2189 201.791 75.1892 202.861 68.5349C204.685 70.44 208.041 70.4661 210 71.0001C209.474 69.3674 204.711 69.1363 203.077 67.3697Z" fill="#003AB3"/>
<path fill-rule="evenodd" clip-rule="evenodd" d="M208.247 70.6458C206.404 70.3264 204.212 69.9464 202.861 68.5349L203.077 67.3697C203.859 68.2149 205.357 68.7086 206.764 69.1726C208.299 69.6783 209.726 70.1486 210 71.0001C209.492 70.8617 208.891 70.7575 208.247 70.6458Z" fill="#002780"/>
<path fill-rule="evenodd" clip-rule="evenodd" d="M208.247 70.6458C206.404 70.3264 204.212 69.9464 202.861 68.5349L203.077 67.3697C203.859 68.2149 205.357 68.7086 206.764 69.1726C208.299 69.6783 209.726 70.1486 210 71.0001C209.492 70.8617 208.891 70.7575 208.247 70.6458Z" fill="#003AB3"/>
<path fill-rule="evenodd" clip-rule="evenodd" d="M226.02 91.8706C226.217 92.0945 226.397 92.2997 226.555 92.4761L225.766 92.8C225.608 92.6492 225.427 92.4791 225.229 92.2942C224.017 91.1593 222.212 89.4681 221.764 88.2691L221.947 88.0961C223.124 88.5669 224.858 90.5444 226.02 91.8706Z" fill="#002780"/>
<path fill-rule="evenodd" clip-rule="evenodd" d="M226.02 91.8706C226.217 92.0945 226.397 92.2997 226.555 92.4761L225.766 92.8C225.608 92.6492 225.427 92.4791 225.229 92.2942C224.017 91.1593 222.212 89.4681 221.764 88.2691L221.947 88.0961C223.124 88.5669 224.858 90.5444 226.02 91.8706Z" fill="#003AB3"/>
<path d="M214.31 76.1903C216.723 78.3246 218.744 81.1109 221.094 83.34C221.811 84.0203 222.578 84.6197 222.704 85.6255C222.058 87.36 217.485 91.2079 215.836 92.8859C215.255 93.5143 214.771 94.154 213.985 94.4702C212.419 94.3839 204.988 86.2869 205.307 85.5272C206.316 83.1213 210.399 80.0827 212.293 77.7948C213.03 77.1497 213.503 76.741 214.31 76.1903Z" fill="#2962FF" fill-opacity="0.7"/>
<path d="M216.969 80.6041C219.607 83.278 213.588 91.3049 211.06 90.7866C210.593 90.2796 210.366 89.9598 209.964 89.3752C213.39 86.5479 214.943 85.8549 216.969 80.6041Z" fill="#003AB3"/>
<path d="M213.739 78C217.208 80.7184 212.733 87.3332 209.749 88C209.041 87.6389 208.355 87.4049 208 86.7689C211.502 84.1326 213.274 82.4289 213.739 78Z" fill="#003AB3"/>
<path d="M218.846 82.3721C221.568 84.4126 216.861 90.6347 215.29 92.0617C214.443 92.8314 214.025 93.0297 213.058 93.3953C212.379 92.2146 212.007 92.1229 213.026 91.0967C215.928 88.1755 217.441 86.9337 218.846 82.3721Z" fill="#003AB3"/>
<path d="M212.833 78C213.963 80.1347 209.062 84.9778 207.395 86L207 85.1965C207.164 83.7406 211.549 79.4215 212.833 78Z" fill="#003AB3"/>
<path d="M198.943 96.5112C199.834 96.4252 200.784 96.2983 201.644 96.5646C204.363 97.4067 205.373 100.076 204.336 102.626C204.041 103.354 203.541 104.076 203.041 104.681C195.384 113.943 187.679 123.166 179.995 132.406L170.283 144.159C168.449 146.395 165.164 151.108 162.676 152.203C161.737 152.455 160.69 152.532 159.755 152.22C158.738 151.879 157.938 151.212 157.456 150.249C156.757 148.849 156.875 147.241 157.412 145.811C158.339 143.344 179.109 119.146 182.51 115.052L191.427 104.282C193.346 101.965 196.363 97.6923 198.943 96.5112Z" fill="#2962FF" fill-opacity="0.7"/>
<path d="M199.5 96C201.061 95.8518 205.241 97.3094 206 99.0001C206.958 101.134 203.812 104.905 202.5 106.5C200.302 109.175 189.721 121.831 187.5 124.5L177 136.5C171.956 142.577 171.577 143.845 166.5 149.897C165.878 150.639 163.364 152.593 162.5 153C161.995 153.086 160.009 153.081 159.5 153C158.661 152.867 155.928 149.717 155.5 149C154.872 147.95 158.143 144.129 158.5 143C158.995 141.435 192.595 102.267 196 98.5C196.591 97.8464 198.732 96.4273 199.5 96Z" fill="#003AB3"/>
<path d="M149.59 154.752C150.71 154.599 155.372 158.442 156.649 159.411C156.542 161.746 156.654 165.531 155.807 167.666C155.546 168.324 152.375 172.863 151.777 173.29C150.51 174.196 146.993 175.134 145.271 175.784C144.618 175.598 139.603 172.067 138.631 171.424C138.611 168.717 138.621 166.12 138.386 163.418C140.258 161.159 141.624 159.202 143.239 156.758C145.422 156.182 147.383 155.322 149.59 154.752Z" fill="#2962FF" fill-opacity="0.7"/>
<path d="M149.626 155.713C150.232 156.49 149.849 162.041 149.798 163.462C148.825 164.957 146.647 167.566 145.477 169.058C143.759 169.737 141.817 170.56 140.024 170.912C139.603 170.441 139.573 164.905 139.519 163.811C141.193 161.676 142.438 159.943 143.948 157.681C146.115 157.012 147.475 156.554 149.626 155.713Z" fill="#003AB3"/>
<path d="M150.57 164.346C151.997 165.397 153.378 166.293 154.863 167.26C154.008 168.685 151.859 171.283 150.802 172.603L146.51 169.527C147.769 167.816 149.244 166.022 150.57 164.346Z" fill="#002780"/>
<path d="M151.114 156.836C152.337 157.495 154.384 159.118 155.487 159.981C155.376 162.017 155.292 164.169 155.068 166.186C154.621 166.119 151.551 163.857 150.943 163.428C150.96 161.282 150.933 158.957 151.114 156.836Z" fill="#002780"/>
<path d="M145.556 170.207C147.032 171.121 148.202 171.876 149.606 172.895C148.23 173.468 146.88 173.926 145.474 174.414C144.638 174.367 142.062 172.325 141.276 171.746C142.69 171.263 144.146 170.715 145.556 170.207Z" fill="#002780"/>
<path d="M198.668 116.528C199.856 117.092 221.239 145.787 223.731 148.771C226.195 151.72 226.116 154.121 225.56 157.806C224.443 156.216 217.964 147.129 216.938 146.433L216.65 146.503C216.637 146.662 216.624 146.821 216.611 146.981C218.805 150.013 223.277 156.014 225.324 158.628C223.64 162.322 221.901 164.19 218.41 166.222C217.316 165.002 214.069 160.3 213.36 159.699L213.009 159.813L212.917 160.144C213.961 162.002 216.196 164.659 217.497 166.731C216.045 167.195 215.259 167.324 213.784 167.561C212.316 166.068 206.934 157.636 205.902 157.394C206.059 159.035 211.341 165.803 212.622 167.585C207.015 166.865 206.64 165.299 203.554 160.91L198.084 153.14C193.768 147.036 188.453 140.125 184.439 134.012C185.047 133.092 185.791 132.237 186.496 131.386C188.398 133.783 190.114 136.373 191.86 138.894C192.829 140.245 199.811 150.276 200.614 150.528L200.774 150.32C200.423 148.773 188.918 133.235 187.033 130.666L188.592 128.854C189.939 130.724 192.795 135.134 194.266 136.576L194.397 136.49C194.028 134.634 190.476 130.148 189.155 128.083L191.002 126.054C193.622 129.699 209.865 153.578 211.705 154.616L211.804 154.312C211.468 152.945 208.611 149.488 207.642 148.18C205.68 145.501 203.744 142.802 201.835 140.085L195.572 131.133C194.438 129.519 192.712 126.976 191.424 125.573C193.017 123.357 195.091 121.098 196.797 118.846C198.909 121.298 208.81 136.194 210.091 136.658L210.218 136.381C209.845 135.141 198.583 119.63 197.308 118.283C197.723 117.674 198.204 117.103 198.668 116.528Z" fill="#003AB3"/>
<path fill-rule="evenodd" clip-rule="evenodd" d="M201.815 125.751C199.609 122.622 197.617 119.797 196.797 118.846L197.308 118.283C198.583 119.63 209.845 135.141 210.218 136.381L210.091 136.658C209.307 136.374 205.295 130.685 201.815 125.751Z" fill="#003AB3"/>
<path fill-rule="evenodd" clip-rule="evenodd" d="M194.465 131.017C192.842 128.677 191.585 126.865 191.002 126.054L191.424 125.573C192.534 126.782 193.969 128.837 195.07 130.415C195.246 130.669 195.415 130.91 195.572 131.133L201.835 140.085C203.744 142.802 205.68 145.501 207.642 148.18C207.834 148.439 208.1 148.782 208.405 149.177C209.643 150.775 211.534 153.216 211.804 154.312L211.705 154.616C210.274 153.809 200.137 139.194 194.465 131.017Z" fill="#003AB3"/>
<path fill-rule="evenodd" clip-rule="evenodd" d="M190.832 137.401C189.432 135.362 188.025 133.312 186.496 131.386L187.033 130.666C187.186 130.874 187.402 131.167 187.669 131.531C190.708 135.66 200.451 148.899 200.774 150.32L200.614 150.528C199.921 150.31 194.628 142.813 192.567 139.892C192.239 139.428 191.993 139.079 191.86 138.894C191.517 138.398 191.175 137.9 190.832 137.401Z" fill="#003AB3"/>
<path fill-rule="evenodd" clip-rule="evenodd" d="M189.924 130.769C189.41 130.021 188.948 129.349 188.592 128.854L189.155 128.083C189.526 128.662 190.072 129.433 190.675 130.282C192.219 132.459 194.131 135.155 194.397 136.49L194.266 136.576C193.184 135.515 191.353 132.849 189.924 130.769Z" fill="#003AB3"/>
<path fill-rule="evenodd" clip-rule="evenodd" d="M210.592 163.292C211.933 165.186 213.185 166.952 213.784 167.561L212.622 167.585C212.396 167.271 212.046 166.802 211.621 166.233C209.638 163.576 206.031 158.746 205.902 157.394C206.513 157.537 208.647 160.548 210.592 163.292Z" fill="#003AB3"/>
<path fill-rule="evenodd" clip-rule="evenodd" d="M215.99 163.066C216.948 164.363 217.907 165.661 218.41 166.222L217.497 166.731C216.906 165.789 216.121 164.727 215.343 163.673C214.41 162.409 213.487 161.158 212.917 160.144L213.009 159.813L213.36 159.699C213.743 160.024 214.866 161.544 215.99 163.066Z" fill="#003AB3"/>
<path fill-rule="evenodd" clip-rule="evenodd" d="M216.938 146.433C217.964 147.129 224.443 156.216 225.56 157.806L225.324 158.628C223.277 156.014 218.805 150.013 216.611 146.981L216.65 146.503L216.938 146.433Z" fill="#003AB3"/>
<path d="M170.561 43.7344C173.681 43.4055 184.698 44.1775 186.759 46.2495L186.752 46.6423C186.448 46.9194 186.09 47.1601 185.667 47.1403C176.9 46.7336 166.15 48.6813 162.122 57.5643C161.867 58.1274 161.707 59.7764 161.989 60.3704C163.531 63.6273 166.229 66.1993 167.892 69.4368C166.444 71.3776 163.674 74.1349 161.914 75.9967C158.399 79.6952 154.904 83.4122 151.429 87.149L148.976 84.6932C147.137 83.0871 145.134 83.4335 143.242 84.6885C140.968 86.1761 139.386 88.5131 138.85 91.1764C137.073 89.0603 133.913 85.1777 131.979 83.4173C138.491 80.206 138.873 73.9426 138.449 67.6122C140.884 64.808 144.381 61.4041 146.982 58.6053C153.829 51.2401 159.896 44.5607 170.561 43.7344Z" fill="#002780"/>
<path d="M170.561 43.7344C173.681 43.4055 184.698 44.1775 186.759 46.2495L186.752 46.6423C186.448 46.9194 186.09 47.1601 185.667 47.1403C176.9 46.7336 166.15 48.6813 162.122 57.5643C161.867 58.1274 161.707 59.7764 161.989 60.3704C163.531 63.6273 166.229 66.1993 167.892 69.4368C166.444 71.3776 163.674 74.1349 161.914 75.9967C158.399 79.6952 154.904 83.4122 151.429 87.149L148.976 84.6932C147.137 83.0871 145.134 83.4335 143.242 84.6885C140.968 86.1761 139.386 88.5131 138.85 91.1764C137.073 89.0603 133.913 85.1777 131.979 83.4173C138.491 80.206 138.873 73.9426 138.449 67.6122C140.884 64.808 144.381 61.4041 146.982 58.6053C153.829 51.2401 159.896 44.5607 170.561 43.7344Z" fill="#003AB3"/>
<path d="M222.665 44.1161C223.815 43.9895 225.291 44.0399 226.473 44.046C227.437 44.8738 228.416 45.6834 229.411 46.4748C225.774 46.6424 222.467 47.0588 219.127 48.5901C210.557 52.5181 202.864 59.7049 201.604 69.4663C200.726 75.7185 201.368 81.8941 198.594 87.7652C196.094 93.0538 191.701 97.4488 187.921 101.905L172.952 119.691L158.577 136.969C156.149 139.897 153.767 142.916 151.237 145.752C149.451 147.849 146.927 148.883 144.455 150.03C135.148 154.348 129.851 166.058 133.948 175.781L134.926 177.552C130.796 174.946 128.573 173.06 128.052 167.818C127.276 160.013 131.478 152.323 138.224 148.431C140.834 146.926 143.987 145.955 146.228 143.846C148.793 141.242 151.157 138.118 153.506 135.298L167.901 117.984L182.558 100.55C185.159 97.4895 188.478 93.8107 190.826 90.6943C192.174 88.9265 193.303 87.002 194.189 84.9634C199.092 73.8966 193.892 65.0329 201.96 55.4124C207.239 49.1164 214.468 44.9168 222.665 44.1161Z" fill="#002780"/>
<path d="M164.65 74.7747C165.505 75.6984 166.244 76.7127 167.031 77.6933C172.455 84.456 177.551 91.5306 183.083 98.2031L180.495 101.212C179.608 99.8315 173.497 91.3607 172.506 90.8669C172.599 92.4214 178.69 100.068 180.026 101.71C178.641 103.476 177.142 105.102 175.743 106.923C174.961 105.871 173.722 104.046 172.631 103.429C172.581 104.369 174.535 106.722 175.164 107.555L173.904 109.082C171.677 105.876 169.398 102.706 167.067 99.5738C163.462 94.385 159.508 89.2756 155.828 84.0977C156.702 83.0512 158.011 81.792 158.988 80.797C160.676 82.9858 168.724 94.0933 169.985 95.0294C170.039 93.4926 161.169 82.3527 159.619 80.1182C160.357 79.2525 161.368 78.2584 162.171 77.4236C163.421 79.0989 168.216 85.9363 169.459 87.0252L169.53 86.9138C169.452 86.2528 169.225 85.6181 168.866 85.057C168.428 84.3682 167.409 83.2846 166.859 82.5273C165.458 80.5997 164.073 78.667 162.69 76.7266C163.31 76.0808 164.011 75.4109 164.65 74.7747Z" fill="#003AB3"/>
<path fill-rule="evenodd" clip-rule="evenodd" d="M161.274 83.8574C160.247 82.473 159.414 81.3502 158.988 80.797L159.619 80.1182C160.017 80.6909 160.895 81.8486 161.98 83.2796C165.13 87.4321 170.025 93.8865 169.985 95.0294C169.042 94.3298 164.31 87.9505 161.274 83.8574Z" fill="#003AB3"/>
<path fill-rule="evenodd" clip-rule="evenodd" d="M163.521 79.2809C162.94 78.4755 162.461 77.8113 162.171 77.4236L162.69 76.7266C164.073 78.667 165.458 80.5997 166.859 82.5273C167.1 82.8589 167.431 83.2531 167.763 83.6494C168.19 84.1579 168.62 84.6698 168.866 85.057C169.225 85.6181 169.452 86.2528 169.53 86.9138L169.459 87.0252C168.504 86.1883 165.45 81.9557 163.521 79.2809Z" fill="#003AB3"/>
<path fill-rule="evenodd" clip-rule="evenodd" d="M175.423 106.487C175.537 106.642 175.644 106.789 175.743 106.923L175.164 107.555C175.078 107.442 174.969 107.301 174.843 107.139C174.041 106.109 172.588 104.241 172.631 103.429C173.583 103.967 174.648 105.425 175.423 106.487Z" fill="#003AB3"/>
<path fill-rule="evenodd" clip-rule="evenodd" d="M172.506 90.8669C173.497 91.3607 179.608 99.8315 180.495 101.212L180.026 101.71C178.69 100.068 172.599 92.4214 172.506 90.8669Z" fill="#003AB3"/>
<path d="M166.552 41.2237C168.467 41.1238 175.673 41.6246 177.068 42.63C176.67 42.7128 173.451 42.4582 172.721 42.4632C161.951 42.5379 155.559 47.9302 148.517 55.3202L140.03 64.3615L137.73 66.8119C135.803 66.07 132.865 64.6726 131.003 63.7582C131.167 63.5596 131.334 63.3646 131.506 63.173C134.388 60.0129 137.928 56.6747 140.84 53.5846C149.405 44.4957 154.065 41.8022 166.552 41.2237Z" fill="#002780"/>
<path d="M145.596 50.8413C153.285 50.8045 142.789 60.9723 139.683 61.8779C133.362 62.1523 139.169 55.6287 141.08 54.0719C142.823 52.6524 143.366 51.8092 145.596 50.8413Z" fill="#2962FF" fill-opacity="0.7"/>
<path d="M145.69 51.9699C146.457 51.8778 146.647 51.8732 147.191 52.3229C147.506 54.3956 141.593 59.8321 139.787 60.7144C139.09 60.8514 138.901 60.9628 138.307 60.6664C136.978 58.3572 143.885 52.9614 145.69 51.9699Z" fill="#002780"/>
<path d="M243.914 61.4049C244.295 62.3496 244.394 64.31 244.389 65.3681C244.343 73.3811 241.079 80.5056 235.566 86.1588L233.868 84.3457C233.022 83.4549 232.177 82.6407 231.295 81.7897C231.209 79.6817 231.255 77.5703 231.433 75.4678C234.811 71.5568 240.369 64.9513 243.914 61.4049Z" fill="#002780"/>
<path d="M243.914 61.4049C244.295 62.3496 244.394 64.31 244.389 65.3681C244.343 73.3811 241.079 80.5056 235.566 86.1588L233.868 84.3457C233.022 83.4549 232.177 82.6407 231.295 81.7897C231.209 79.6817 231.255 77.5703 231.433 75.4678C234.811 71.5568 240.369 64.9513 243.914 61.4049Z" fill="#003AB3"/>
<path d="M120.66 79.3902C124.75 79.2737 129.717 82.7535 132.586 85.5271C130.321 87.9616 128.004 90.3474 125.637 92.6829L125.549 92.741C125.075 92.7034 122.92 90.8405 122.305 90.3765C119.517 88.2736 117.435 87.2654 114.094 86.2627C116.293 84.0418 118.501 81.6637 120.66 79.3902Z" fill="#003AB3"/>
<path d="M113.061 87.5144C118.096 87.4107 125.223 93.8409 128.07 97.731C129.249 99.3409 131.614 102.523 131.348 104.508C125.726 105.525 112.325 92.9799 113.061 87.5144Z" fill="#002780"/>
<path d="M133.175 86.3832C134.395 87.3797 137.85 91.6896 138.613 93.255C138.869 93.7805 139.313 95.3169 139.49 95.95C137.418 98.5312 134.745 100.902 132.553 103.505C131.223 99.5072 128.826 96.712 126.095 93.6071C128.333 91.2101 130.862 88.8313 133.175 86.3832Z" fill="#003AB3"/>
<path d="M155.165 84.8612C155.668 85.4088 156.984 87.3171 157.473 87.9943L162.18 94.5081C165.431 99.008 170.362 105.348 173.213 109.89L171.088 112.449L170.982 112.442C170.333 111.997 154.504 89.3995 152.993 87.2025C153.545 86.485 154.514 85.5373 155.165 84.8612Z" fill="#002780"/>
<path d="M130.879 64.9825C131.934 65.2991 136.14 67.3184 137.26 67.8544C138.272 73.9259 137.087 79.0148 131.647 82.4045C130.945 82.6731 126.814 80.0392 125.926 79.5361C131.993 76.3036 132.068 71.0629 130.879 64.9825Z" fill="#002780"/>
<path d="M239.291 57.7091C240.149 57.9378 242.463 59.6112 243.349 60.2122C239.117 64.9044 234.998 69.7755 230.76 74.496L230.433 74.5691C229.18 73.6891 228.086 72.9148 226.893 71.9511C229.788 68.0383 235.909 61.5097 239.291 57.7091Z" fill="#002780"/>
<path d="M228.898 76.0409C229.117 75.9941 229.6 75.996 229.846 75.9883L230.152 76.3064C230.387 77.4538 230.158 79.1283 230.118 80.4155C229.824 80.1566 229.387 79.6697 229.101 79.3717L226.333 76.4248C227.16 76.2723 228.061 76.1605 228.898 76.0409Z" fill="#002780"/>
<path d="M228.898 76.0409C229.117 75.9941 229.6 75.996 229.846 75.9883L230.152 76.3064C230.387 77.4538 230.158 79.1283 230.118 80.4155C229.824 80.1566 229.387 79.6697 229.101 79.3717L226.333 76.4248C227.16 76.2723 228.061 76.1605 228.898 76.0409Z" fill="#003AB3"/>
<path d="M224.805 72.7464C226.004 72.5351 228.316 73.5897 228.69 74.7286C228.303 75.1338 227.934 75.0486 227.258 75.1342L225.302 75.3389C224.68 74.6249 223.62 73.8524 223.414 73.1268C223.786 72.7282 224.137 72.8211 224.805 72.7464Z" fill="#002780"/>
<path d="M145.807 84.6932C147.16 84.5581 148.257 85.1061 148.829 86.3813L148.409 86.3437C147.327 85.9811 145.681 85.8437 144.829 85.2818L144.952 85.0001L145.807 84.6932Z" fill="#003AB3"/>
</g>
<rect x="0.75" y="0.75" width="354.5" height="210.5" rx="19.25" stroke="#003AB3" stroke-opacity="0.2" stroke-width="1.5"/>
<defs>
<clipPath id="clip0_5609_400">
<rect width="356" height="212" rx="20" fill="white"/>
</clipPath>
<clipPath id="clip1_5609_400">
<rect width="523" height="408.285" fill="white" transform="translate(-81 -44.1909)"/>
</clipPath>
</defs>
</svg>
