<svg width="356" height="212" viewBox="0 0 356 212" fill="none" xmlns="http://www.w3.org/2000/svg">
<g clip-path="url(#clip0_5609_147)">
<g clip-path="url(#clip1_5609_147)">
<rect width="523" height="408.285" transform="translate(-81 -44.1909)" fill="white"/>
<rect width="523" height="408.285" transform="translate(-81 -44.1909)" fill="#DCE1FF" fill-opacity="0.4"/>
<path opacity="0.3" d="M60.8507 -50.3583V260.202L-84.7012 318.455" stroke="#2962FF" stroke-opacity="0.6" stroke-width="0.5" stroke-linecap="round" stroke-linejoin="round"/>
<path opacity="0.3" d="M84.287 -50.3583V259.85L-84.7012 344.359" stroke="#2962FF" stroke-opacity="0.6" stroke-width="0.5" stroke-linecap="round" stroke-linejoin="round"/>
<path opacity="0.3" d="M107.723 -50.3583V260.238L-84.7012 388.764" stroke="#2962FF" stroke-opacity="0.6" stroke-width="0.5" stroke-linecap="round" stroke-linejoin="round"/>
<path opacity="0.3" d="M131.16 -50.3583V260.181L-84.7012 476.342" stroke="#2962FF" stroke-opacity="0.6" stroke-width="0.5" stroke-linecap="round" stroke-linejoin="round"/>
<path opacity="0.3" d="M154.597 -50.3583V260.181L47.2832 476.342" stroke="#2962FF" stroke-opacity="0.6" stroke-width="0.5" stroke-linecap="round" stroke-linejoin="round"/>
<path opacity="0.3" d="M178.788 -50.3583V260.181L178.51 476.342" stroke="#2962FF" stroke-opacity="0.6" stroke-width="0.5" stroke-linecap="round" stroke-linejoin="round"/>
<path opacity="0.3" d="M202.703 -50.3583V260.181L310.017 476.342" stroke="#2962FF" stroke-opacity="0.6" stroke-width="0.5" stroke-linecap="round" stroke-linejoin="round"/>
<path opacity="0.3" d="M226.139 -50.3583V260.181L442 476.342" stroke="#2962FF" stroke-opacity="0.6" stroke-width="0.5" stroke-linecap="round" stroke-linejoin="round"/>
<path opacity="0.3" d="M249.575 -50.3583V260.096L442 388.764" stroke="#2962FF" stroke-opacity="0.6" stroke-width="0.5" stroke-linecap="round" stroke-linejoin="round"/>
<path opacity="0.3" d="M273.012 -50.3583V259.761L442 344.359" stroke="#2962FF" stroke-opacity="0.6" stroke-width="0.5" stroke-linecap="round" stroke-linejoin="round"/>
<path opacity="0.3" d="M296.448 -50.3583V260.14L442 318.455" stroke="#2962FF" stroke-opacity="0.6" stroke-width="0.5" stroke-linecap="round" stroke-linejoin="round"/>
<path opacity="0.3" d="M319.885 -50.3583V259.332L442 299.953" stroke="#2962FF" stroke-opacity="0.6" stroke-width="0.5" stroke-linecap="round" stroke-linejoin="round"/>
<path opacity="0.3" d="M343.32 -50.3583V259.51L442 287.618" stroke="#2962FF" stroke-opacity="0.6" stroke-width="0.5" stroke-linecap="round" stroke-linejoin="round"/>
<path opacity="0.3" d="M-84.7012 287.618L13.9781 259.545V-50.3583" stroke="#2962FF" stroke-opacity="0.6" stroke-width="0.5" stroke-linecap="round" stroke-linejoin="round"/>
<path opacity="0.3" d="M37.4144 -50.3583V259.377L-84.7012 299.953" stroke="#2962FF" stroke-opacity="0.6" stroke-width="0.5" stroke-linecap="round" stroke-linejoin="round"/>
<path opacity="0.3" d="M-84.7012 188.939H441.999" stroke="#2962FF" stroke-opacity="0.6" stroke-width="0.5" stroke-linecap="round" stroke-linejoin="round"/>
<path opacity="0.3" d="M-84.7012 165.502H441.999" stroke="#2962FF" stroke-opacity="0.6" stroke-width="0.5" stroke-linecap="round" stroke-linejoin="round"/>
<path opacity="0.3" d="M-84.7012 142.066H441.999" stroke="#2962FF" stroke-opacity="0.6" stroke-width="0.5" stroke-linecap="round" stroke-linejoin="round"/>
<path opacity="0.3" d="M-84.7012 118.013H441.999" stroke="#2962FF" stroke-opacity="0.6" stroke-width="0.5" stroke-linecap="round" stroke-linejoin="round"/>
<path opacity="0.3" d="M-84.7012 94.5767H441.999" stroke="#2962FF" stroke-opacity="0.6" stroke-width="0.5" stroke-linecap="round" stroke-linejoin="round"/>
<path opacity="0.3" d="M-84.7012 71.1404H441.999" stroke="#2962FF" stroke-opacity="0.6" stroke-width="0.5" stroke-linecap="round" stroke-linejoin="round"/>
<path opacity="0.3" d="M-84.7012 47.7043H441.999" stroke="#2962FF" stroke-opacity="0.6" stroke-width="0.5" stroke-linecap="round" stroke-linejoin="round"/>
<path opacity="0.3" d="M-84.7012 24.2679H441.999" stroke="#2962FF" stroke-opacity="0.6" stroke-width="0.5" stroke-linecap="round" stroke-linejoin="round"/>
<path opacity="0.3" d="M-84.7012 0.831589H441.999" stroke="#2962FF" stroke-opacity="0.6" stroke-width="0.5" stroke-linecap="round" stroke-linejoin="round"/>
</g>
<path d="M163.29 35.2488C170.485 34.2171 179.454 36.5402 185.956 39.5216C186.95 39.9775 188.287 40.9395 187.706 42.2255C186.895 44.0188 183.412 43.1074 181.852 43.27C175.247 43.0068 163.224 47.1705 163.03 54.7864C163.004 55.8441 168.035 61.866 169.081 64.207L169.184 64.4415C168.317 66.061 166.782 67.5366 165.512 68.8799C166.825 70.8624 170.045 74.7281 171.677 76.8256C175.618 81.8948 179.685 87.397 183.788 92.2979C188.053 87.5947 192.32 82.7399 194.283 76.6541C195.291 73.5327 195.538 70.7041 195.583 67.4871C195.703 58.8301 197.511 52.4633 204.118 46.487C210.868 40.3815 217.688 37.7197 226.803 38.0866C228.072 39.0189 231.176 41.3648 232.013 42.5293C231.128 43.8462 228.554 46.6128 227.421 47.8961C224.675 51.0524 221.883 54.1688 219.047 57.2442C219.044 59.558 219.174 61.6838 219.312 63.9864C220.212 64.9484 221.126 65.8981 222.052 66.8354C223.33 66.7971 224.301 66.6969 225.561 66.5541C227.348 64.7306 237.761 52.0852 239.016 51.8329C240.342 51.5663 242.208 53.0434 243.222 53.819C244.516 54.8077 245.194 56.0465 245.376 57.6625C246.117 64.2414 244.031 71.3845 240.461 76.8805C239.265 78.7214 237.812 80.3801 236.458 82.1049L236.608 82.6037C236.157 84.7391 213.273 94.561 209.918 98.3531C206.625 102.076 202.67 106.717 199.481 110.541C205.024 117.121 210.957 125.259 216.229 132.15L222.006 139.668C225.313 143.936 228.249 146.873 226.728 152.731C225.593 157.103 222.887 159.897 219.102 162.15C214.436 164.387 208.284 164.491 204.992 159.911C202.84 156.918 200.757 153.877 198.631 150.865C193.681 143.859 188.688 136.884 183.649 129.942C181.592 132.086 177.743 137.175 175.666 139.718L168.77 148.148C164.984 152.78 163.32 154.166 162.245 160.294C160.878 168.09 153.634 176.017 145.502 176.912C143.874 177.107 142.224 176.976 140.648 176.527C138.419 175.881 132.885 172.548 130.892 171.072C128.482 169.141 127.178 165.575 126.956 162.641C126.226 153.015 132.083 144.362 140.929 140.808C142.295 140.259 144.867 138.798 145.823 137.715C148.749 134.401 151.554 130.893 154.378 127.472L170.231 108.462C165.961 102.799 157.142 89.3904 152.081 83.2337C151.972 83.1018 150.733 83.2864 150.156 83.1072C147.78 82.3708 145.535 81.6854 143.105 81.1076C140.998 82.9539 140.292 84.6134 139.589 87.2441C140.03 88.7917 141.12 91.0405 139.724 92.3814C138.249 93.7967 132.76 100.612 131.05 100.745C128.289 100.961 122.864 97.7312 120.766 95.8376C117.853 93.3373 108.936 84.5758 113.08 80.7651C114.225 79.7117 119.559 73.396 120.75 73.4092C123.795 73.4433 126.026 74.5632 128.558 71.1054C131.524 67.2158 130.074 63.0185 129.582 58.548C134.118 53.7083 138.967 49.0675 143.537 44.2924C149.271 38.2995 155.217 36.1377 163.29 35.2488Z" fill="#2962FF" fill-opacity="0.7"/>
<path d="M203.077 62.3697C206.607 50.6098 218.41 42.3057 230.642 42.6579C226.848 46.7124 223.222 50.9797 219.494 55.0981C218.942 55.7076 218.469 56.2792 217.989 56.9464C217.925 59.0222 218.148 62.615 218.353 64.6606C223.968 70.4814 229.695 76.6562 235.236 82.5725C233.594 83.8999 228.691 86.2907 226.555 87.4761C225.459 86.2547 223.322 83.6464 221.947 83.0961L221.764 83.2691C222.285 84.6634 224.642 86.7234 225.766 87.8C221.717 90.1595 214.181 93.3196 210.951 96.0123C205.851 100.263 199.624 108.671 195.316 113.948L173.137 141.005C169.808 145.065 165.914 149.429 163.046 153.83C162.07 155.328 161.547 158.505 161.144 160.379C159.413 168.42 150.93 177.254 142.186 175.737C139.645 175.303 137.384 173.867 135.912 171.751C130.323 163.806 135.566 150.934 143.625 146.763C145.4 145.845 148.449 144.639 149.914 143.462C153.272 140.764 156.152 136.668 158.937 133.312L172.975 116.413L187.69 98.936C191.409 94.563 196.518 89.2373 199.204 84.2861C202.496 78.2189 201.791 70.1892 202.861 63.5349C204.685 65.44 208.041 65.4661 210 66.0001C209.474 64.3674 204.711 64.1363 203.077 62.3697Z" fill="#EFF0FF"/>
<path d="M203.077 62.3697C206.607 50.6098 218.41 42.3057 230.642 42.6579C226.848 46.7124 223.222 50.9797 219.494 55.0981C218.942 55.7076 218.469 56.2792 217.989 56.9464C217.925 59.0222 218.148 62.615 218.353 64.6606C223.968 70.4814 229.695 76.6562 235.236 82.5725C233.594 83.8999 228.691 86.2907 226.555 87.4761C225.459 86.2547 223.322 83.6464 221.947 83.0961L221.764 83.2691C222.285 84.6634 224.642 86.7234 225.766 87.8C221.717 90.1595 214.181 93.3196 210.951 96.0123C205.851 100.263 199.624 108.671 195.316 113.948L173.137 141.005C169.808 145.065 165.914 149.429 163.046 153.83C162.07 155.328 161.547 158.505 161.144 160.379C159.413 168.42 150.93 177.254 142.186 175.737C139.645 175.303 137.384 173.867 135.912 171.751C130.323 163.806 135.566 150.934 143.625 146.763C145.4 145.845 148.449 144.639 149.914 143.462C153.272 140.764 156.152 136.668 158.937 133.312L172.975 116.413L187.69 98.936C191.409 94.563 196.518 89.2373 199.204 84.2861C202.496 78.2189 201.791 70.1892 202.861 63.5349C204.685 65.44 208.041 65.4661 210 66.0001C209.474 64.3674 204.711 64.1363 203.077 62.3697Z" fill="#DCE1FF"/>
<path fill-rule="evenodd" clip-rule="evenodd" d="M208.247 65.6458C206.404 65.3264 204.212 64.9464 202.861 63.5349L203.077 62.3697C203.859 63.2149 205.357 63.7086 206.764 64.1726C208.299 64.6783 209.726 65.1486 210 66.0001C209.492 65.8617 208.891 65.7575 208.247 65.6458Z" fill="#EFF0FF"/>
<path fill-rule="evenodd" clip-rule="evenodd" d="M208.247 65.6458C206.404 65.3264 204.212 64.9464 202.861 63.5349L203.077 62.3697C203.859 63.2149 205.357 63.7086 206.764 64.1726C208.299 64.6783 209.726 65.1486 210 66.0001C209.492 65.8617 208.891 65.7575 208.247 65.6458Z" fill="#DCE1FF"/>
<path fill-rule="evenodd" clip-rule="evenodd" d="M226.02 86.8706C226.217 87.0945 226.397 87.2997 226.555 87.4761L225.766 87.8C225.608 87.6492 225.427 87.4791 225.229 87.2942C224.017 86.1593 222.212 84.4681 221.764 83.2691L221.947 83.0961C223.124 83.5669 224.858 85.5444 226.02 86.8706Z" fill="#EFF0FF"/>
<path fill-rule="evenodd" clip-rule="evenodd" d="M226.02 86.8706C226.217 87.0945 226.397 87.2997 226.555 87.4761L225.766 87.8C225.608 87.6492 225.427 87.4791 225.229 87.2942C224.017 86.1593 222.212 84.4681 221.764 83.2691L221.947 83.0961C223.124 83.5669 224.858 85.5444 226.02 86.8706Z" fill="#DCE1FF"/>
<path d="M214.31 71.1903C216.723 73.3246 218.744 76.1109 221.094 78.34C221.811 79.0203 222.578 79.6197 222.704 80.6255C222.058 82.36 217.485 86.2079 215.836 87.8859C215.255 88.5143 214.771 89.154 213.985 89.4702C212.419 89.3839 204.988 81.2869 205.307 80.5272C206.316 78.1213 210.399 75.0827 212.293 72.7948C213.03 72.1497 213.503 71.741 214.31 71.1903Z" fill="#2962FF" fill-opacity="0.7"/>
<path d="M216.969 75.6041C219.607 78.278 213.588 86.3049 211.06 85.7866C210.593 85.2796 210.366 84.9598 209.964 84.3752C213.39 81.5479 214.943 80.8549 216.969 75.6041Z" fill="#DCE1FF"/>
<path d="M213.739 73C217.208 75.7184 212.733 82.3332 209.749 83C209.041 82.6389 208.355 82.4049 208 81.7689C211.502 79.1326 213.274 77.4289 213.739 73Z" fill="#DCE1FF"/>
<path d="M218.846 77.3721C221.568 79.4126 216.861 85.6347 215.29 87.0617C214.443 87.8314 214.025 88.0297 213.058 88.3953C212.379 87.2146 212.007 87.1229 213.026 86.0967C215.928 83.1755 217.441 81.9337 218.846 77.3721Z" fill="#DCE1FF"/>
<path d="M212.833 73C213.963 75.1347 209.062 79.9778 207.395 81L207 80.1965C207.164 78.7406 211.549 74.4215 212.833 73Z" fill="#DCE1FF"/>
<path d="M198.943 91.5112C199.834 91.4252 200.784 91.2983 201.644 91.5646C204.363 92.4067 205.373 95.0757 204.336 97.6264C204.041 98.3539 203.541 99.0761 203.041 99.6809C195.384 108.943 187.679 118.166 179.995 127.406L170.283 139.159C168.449 141.395 165.164 146.108 162.676 147.203C161.737 147.455 160.69 147.532 159.755 147.22C158.738 146.879 157.938 146.212 157.456 145.249C156.757 143.849 156.875 142.241 157.412 140.811C158.339 138.344 179.109 114.146 182.51 110.052L191.427 99.2823C193.346 96.9646 196.363 92.6923 198.943 91.5112Z" fill="#2962FF" fill-opacity="0.7"/>
<path d="M199.5 91C201.061 90.8518 205.241 92.3094 206 94.0001C206.958 96.134 203.812 99.9046 202.5 101.5C200.302 104.175 189.721 116.831 187.5 119.5L177 131.5C171.956 137.577 171.577 138.845 166.5 144.897C165.878 145.639 163.364 147.593 162.5 148C161.995 148.086 160.009 148.081 159.5 148C158.661 147.867 155.928 144.717 155.5 144C154.872 142.95 158.143 139.129 158.5 138C158.995 136.435 192.595 97.2666 196 93.5C196.591 92.8464 198.732 91.4273 199.5 91Z" fill="#DCE1FF"/>
<path d="M149.59 149.752C150.71 149.599 155.372 153.442 156.649 154.411C156.542 156.746 156.654 160.531 155.807 162.666C155.546 163.324 152.375 167.863 151.777 168.29C150.51 169.196 146.993 170.134 145.271 170.784C144.618 170.598 139.603 167.067 138.631 166.424C138.611 163.717 138.621 161.12 138.386 158.418C140.258 156.159 141.624 154.202 143.239 151.758C145.422 151.182 147.383 150.322 149.59 149.752Z" fill="#2962FF" fill-opacity="0.7"/>
<path d="M149.626 150.713C150.232 151.49 149.849 157.041 149.798 158.462C148.825 159.957 146.647 162.566 145.477 164.058C143.759 164.737 141.817 165.56 140.024 165.912C139.603 165.441 139.573 159.905 139.519 158.811C141.193 156.676 142.438 154.943 143.948 152.681C146.115 152.012 147.475 151.554 149.626 150.713Z" fill="#DCE1FF"/>
<path d="M150.57 159.346C151.997 160.397 153.378 161.293 154.863 162.26C154.008 163.685 151.859 166.283 150.802 167.603L146.51 164.527C147.769 162.816 149.244 161.022 150.57 159.346Z" fill="#EFF0FF"/>
<path d="M151.114 151.836C152.337 152.495 154.384 154.118 155.487 154.981C155.376 157.017 155.292 159.169 155.068 161.186C154.621 161.119 151.551 158.857 150.943 158.428C150.96 156.282 150.933 153.957 151.114 151.836Z" fill="#EFF0FF"/>
<path d="M145.556 165.207C147.032 166.121 148.202 166.876 149.606 167.895C148.23 168.468 146.88 168.926 145.474 169.414C144.638 169.367 142.062 167.325 141.276 166.746C142.69 166.263 144.146 165.715 145.556 165.207Z" fill="#EFF0FF"/>
<path d="M198.668 111.528C199.856 112.092 221.239 140.787 223.731 143.771C226.195 146.72 226.116 149.121 225.56 152.806C224.443 151.216 217.964 142.129 216.938 141.433L216.65 141.503C216.637 141.662 216.624 141.821 216.611 141.981C218.805 145.013 223.277 151.014 225.324 153.628C223.64 157.322 221.901 159.19 218.41 161.222C217.316 160.002 214.069 155.3 213.36 154.699L213.009 154.813L212.917 155.144C213.961 157.002 216.196 159.659 217.497 161.731C216.045 162.195 215.259 162.324 213.784 162.561C212.316 161.068 206.934 152.636 205.902 152.394C206.059 154.035 211.341 160.803 212.622 162.585C207.015 161.865 206.64 160.299 203.554 155.91L198.084 148.14C193.768 142.036 188.453 135.125 184.439 129.012C185.047 128.092 185.791 127.237 186.496 126.386C188.398 128.783 190.114 131.373 191.86 133.894C192.829 135.245 199.811 145.276 200.614 145.528L200.774 145.32C200.423 143.773 188.918 128.235 187.033 125.666L188.592 123.854C189.939 125.724 192.795 130.134 194.266 131.576L194.397 131.49C194.028 129.634 190.476 125.148 189.155 123.083L191.002 121.054C193.622 124.699 209.865 148.578 211.705 149.616L211.804 149.312C211.468 147.945 208.611 144.488 207.642 143.18C205.68 140.501 203.744 137.802 201.835 135.085L195.572 126.133C194.438 124.519 192.712 121.976 191.424 120.573C193.017 118.357 195.091 116.098 196.797 113.846C198.909 116.298 208.81 131.194 210.091 131.658L210.218 131.381C209.845 130.141 198.583 114.63 197.308 113.283C197.723 112.674 198.204 112.103 198.668 111.528Z" fill="#DCE1FF"/>
<path fill-rule="evenodd" clip-rule="evenodd" d="M201.815 120.751C199.609 117.622 197.617 114.797 196.797 113.846L197.308 113.283C198.583 114.63 209.845 130.141 210.218 131.381L210.091 131.658C209.307 131.374 205.295 125.685 201.815 120.751Z" fill="#DCE1FF"/>
<path fill-rule="evenodd" clip-rule="evenodd" d="M194.465 126.017C192.842 123.677 191.585 121.865 191.002 121.054L191.424 120.573C192.534 121.782 193.969 123.837 195.07 125.415C195.246 125.669 195.415 125.91 195.572 126.133L201.835 135.085C203.744 137.802 205.68 140.501 207.642 143.18C207.834 143.439 208.1 143.782 208.405 144.177C209.643 145.775 211.534 148.216 211.804 149.312L211.705 149.616C210.274 148.809 200.137 134.194 194.465 126.017Z" fill="#DCE1FF"/>
<path fill-rule="evenodd" clip-rule="evenodd" d="M190.832 132.401C189.432 130.362 188.025 128.312 186.496 126.386L187.033 125.666C187.186 125.874 187.402 126.167 187.669 126.531C190.708 130.66 200.451 143.899 200.774 145.32L200.614 145.528C199.921 145.31 194.628 137.813 192.567 134.892C192.239 134.428 191.993 134.079 191.86 133.894C191.517 133.398 191.175 132.9 190.832 132.401Z" fill="#DCE1FF"/>
<path fill-rule="evenodd" clip-rule="evenodd" d="M189.924 125.769C189.41 125.021 188.948 124.349 188.592 123.854L189.155 123.083C189.526 123.662 190.072 124.433 190.675 125.282C192.219 127.459 194.131 130.155 194.397 131.49L194.266 131.576C193.184 130.515 191.353 127.849 189.924 125.769Z" fill="#DCE1FF"/>
<path fill-rule="evenodd" clip-rule="evenodd" d="M210.592 158.292C211.933 160.186 213.185 161.952 213.784 162.561L212.622 162.585C212.396 162.271 212.046 161.802 211.621 161.233C209.638 158.576 206.031 153.746 205.902 152.394C206.513 152.537 208.647 155.548 210.592 158.292Z" fill="#DCE1FF"/>
<path fill-rule="evenodd" clip-rule="evenodd" d="M215.99 158.066C216.948 159.363 217.907 160.661 218.41 161.222L217.497 161.731C216.906 160.789 216.121 159.727 215.343 158.673C214.41 157.409 213.487 156.158 212.917 155.144L213.009 154.813L213.36 154.699C213.743 155.024 214.866 156.544 215.99 158.066Z" fill="#DCE1FF"/>
<path fill-rule="evenodd" clip-rule="evenodd" d="M216.938 141.433C217.964 142.129 224.443 151.216 225.56 152.806L225.324 153.628C223.277 151.014 218.805 145.013 216.611 141.981L216.65 141.503L216.938 141.433Z" fill="#DCE1FF"/>
<path d="M170.561 38.7344C173.681 38.4055 184.698 39.1775 186.759 41.2495L186.752 41.6423C186.448 41.9194 186.09 42.1601 185.667 42.1403C176.9 41.7336 166.15 43.6813 162.122 52.5643C161.867 53.1274 161.707 54.7764 161.989 55.3704C163.531 58.6273 166.229 61.1993 167.892 64.4368C166.444 66.3776 163.674 69.1349 161.914 70.9967C158.399 74.6952 154.904 78.4122 151.429 82.149L148.976 79.6932C147.137 78.0871 145.134 78.4335 143.242 79.6885C140.968 81.1761 139.386 83.5131 138.85 86.1764C137.073 84.0603 133.913 80.1777 131.979 78.4173C138.491 75.206 138.873 68.9426 138.449 62.6122C140.884 59.808 144.381 56.4041 146.982 53.6053C153.829 46.2401 159.896 39.5607 170.561 38.7344Z" fill="#EFF0FF"/>
<path d="M170.561 38.7344C173.681 38.4055 184.698 39.1775 186.759 41.2495L186.752 41.6423C186.448 41.9194 186.09 42.1601 185.667 42.1403C176.9 41.7336 166.15 43.6813 162.122 52.5643C161.867 53.1274 161.707 54.7764 161.989 55.3704C163.531 58.6273 166.229 61.1993 167.892 64.4368C166.444 66.3776 163.674 69.1349 161.914 70.9967C158.399 74.6952 154.904 78.4122 151.429 82.149L148.976 79.6932C147.137 78.0871 145.134 78.4335 143.242 79.6885C140.968 81.1761 139.386 83.5131 138.85 86.1764C137.073 84.0603 133.913 80.1777 131.979 78.4173C138.491 75.206 138.873 68.9426 138.449 62.6122C140.884 59.808 144.381 56.4041 146.982 53.6053C153.829 46.2401 159.896 39.5607 170.561 38.7344Z" fill="#DCE1FF"/>
<path d="M222.665 39.1161C223.815 38.9895 225.291 39.0399 226.473 39.046C227.437 39.8738 228.416 40.6834 229.411 41.4748C225.774 41.6424 222.467 42.0588 219.127 43.5901C210.557 47.5181 202.864 54.7049 201.604 64.4663C200.726 70.7185 201.368 76.8941 198.594 82.7652C196.094 88.0538 191.701 92.4488 187.921 96.9054L172.952 114.691L158.577 131.969C156.149 134.897 153.767 137.916 151.237 140.752C149.451 142.849 146.927 143.883 144.455 145.03C135.148 149.348 129.851 161.058 133.948 170.781L134.926 172.552C130.796 169.946 128.573 168.06 128.052 162.818C127.276 155.013 131.478 147.323 138.224 143.431C140.834 141.926 143.987 140.955 146.228 138.846C148.793 136.242 151.157 133.118 153.506 130.298L167.901 112.984L182.558 95.5498C185.159 92.4895 188.478 88.8107 190.826 85.6943C192.174 83.9265 193.303 82.002 194.189 79.9634C199.092 68.8966 193.892 60.0329 201.96 50.4124C207.239 44.1164 214.468 39.9168 222.665 39.1161Z" fill="#EFF0FF"/>
<path d="M164.65 69.7747C165.505 70.6984 166.244 71.7127 167.031 72.6933C172.455 79.456 177.551 86.5306 183.083 93.2031L180.495 96.2123C179.608 94.8315 173.497 86.3607 172.506 85.8669C172.599 87.4214 178.69 95.0676 180.026 96.7096C178.641 98.4758 177.142 100.102 175.743 101.923C174.961 100.871 173.722 99.0459 172.631 98.429C172.581 99.3686 174.535 101.722 175.164 102.555L173.904 104.082C171.677 100.876 169.398 97.7057 167.067 94.5738C163.462 89.385 159.508 84.2756 155.828 79.0977C156.702 78.0512 158.011 76.792 158.988 75.797C160.676 77.9858 168.724 89.0933 169.985 90.0294C170.039 88.4926 161.169 77.3527 159.619 75.1182C160.357 74.2525 161.368 73.2584 162.171 72.4236C163.421 74.0989 168.216 80.9363 169.459 82.0252L169.53 81.9138C169.452 81.2528 169.225 80.6181 168.866 80.057C168.428 79.3682 167.409 78.2846 166.859 77.5273C165.458 75.5997 164.073 73.667 162.69 71.7266C163.31 71.0808 164.011 70.4109 164.65 69.7747Z" fill="#DCE1FF"/>
<path fill-rule="evenodd" clip-rule="evenodd" d="M161.274 78.8574C160.247 77.473 159.414 76.3502 158.988 75.797L159.619 75.1182C160.017 75.6909 160.895 76.8486 161.98 78.2796C165.13 82.4321 170.025 88.8865 169.985 90.0294C169.042 89.3298 164.31 82.9505 161.274 78.8574Z" fill="#DCE1FF"/>
<path fill-rule="evenodd" clip-rule="evenodd" d="M163.521 74.2809C162.94 73.4755 162.461 72.8113 162.171 72.4236L162.69 71.7266C164.073 73.667 165.458 75.5997 166.859 77.5273C167.1 77.8589 167.431 78.2531 167.763 78.6494C168.19 79.1579 168.62 79.6698 168.866 80.057C169.225 80.6181 169.452 81.2528 169.53 81.9138L169.459 82.0252C168.504 81.1883 165.45 76.9557 163.521 74.2809Z" fill="#DCE1FF"/>
<path fill-rule="evenodd" clip-rule="evenodd" d="M175.423 101.487C175.537 101.642 175.644 101.789 175.743 101.923L175.164 102.555C175.078 102.442 174.969 102.301 174.843 102.139C174.041 101.109 172.588 99.241 172.631 98.429C173.583 98.9672 174.648 100.425 175.423 101.487Z" fill="#DCE1FF"/>
<path fill-rule="evenodd" clip-rule="evenodd" d="M172.506 85.8669C173.497 86.3607 179.608 94.8315 180.495 96.2123L180.026 96.7096C178.69 95.0676 172.599 87.4214 172.506 85.8669Z" fill="#DCE1FF"/>
<path d="M166.552 36.2237C168.467 36.1238 175.673 36.6246 177.068 37.63C176.67 37.7128 173.451 37.4582 172.721 37.4632C161.951 37.5379 155.559 42.9302 148.517 50.3202L140.03 59.3615L137.73 61.8119C135.803 61.07 132.865 59.6726 131.003 58.7582C131.167 58.5596 131.334 58.3646 131.506 58.173C134.388 55.0129 137.928 51.6747 140.84 48.5846C149.405 39.4957 154.065 36.8022 166.552 36.2237Z" fill="#EFF0FF"/>
<path d="M145.596 45.8413C153.285 45.8045 142.789 55.9723 139.683 56.8779C133.362 57.1523 139.169 50.6287 141.08 49.0719C142.823 47.6524 143.366 46.8092 145.596 45.8413Z" fill="#2962FF" fill-opacity="0.7"/>
<path d="M145.69 46.9699C146.457 46.8778 146.647 46.8732 147.191 47.3229C147.506 49.3956 141.593 54.8321 139.787 55.7144C139.09 55.8514 138.901 55.9628 138.307 55.6664C136.978 53.3572 143.885 47.9614 145.69 46.9699Z" fill="#EFF0FF"/>
<path d="M243.914 56.4049C244.295 57.3496 244.394 59.31 244.389 60.3681C244.343 68.3811 241.079 75.5056 235.566 81.1588L233.868 79.3457C233.022 78.4549 232.177 77.6407 231.295 76.7897C231.209 74.6817 231.255 72.5703 231.433 70.4678C234.811 66.5568 240.369 59.9513 243.914 56.4049Z" fill="#EFF0FF"/>
<path d="M243.914 56.4049C244.295 57.3496 244.394 59.31 244.389 60.3681C244.343 68.3811 241.079 75.5056 235.566 81.1588L233.868 79.3457C233.022 78.4549 232.177 77.6407 231.295 76.7897C231.209 74.6817 231.255 72.5703 231.433 70.4678C234.811 66.5568 240.369 59.9513 243.914 56.4049Z" fill="#DCE1FF"/>
<path d="M120.66 74.3902C124.75 74.2737 129.717 77.7535 132.586 80.5271C130.321 82.9616 128.004 85.3474 125.637 87.6829L125.549 87.741C125.075 87.7034 122.92 85.8405 122.305 85.3765C119.517 83.2736 117.435 82.2654 114.094 81.2627C116.293 79.0418 118.501 76.6637 120.66 74.3902Z" fill="#DCE1FF"/>
<path d="M113.061 82.5144C118.096 82.4107 125.223 88.8409 128.07 92.731C129.249 94.3409 131.614 97.5235 131.348 99.508C125.726 100.525 112.325 87.9799 113.061 82.5144Z" fill="#EFF0FF"/>
<path d="M133.175 81.3832C134.395 82.3797 137.85 86.6896 138.613 88.255C138.869 88.7805 139.313 90.3169 139.49 90.95C137.418 93.5312 134.745 95.9019 132.553 98.5052C131.223 94.5072 128.826 91.712 126.095 88.6071C128.333 86.2101 130.862 83.8313 133.175 81.3832Z" fill="#DCE1FF"/>
<path d="M155.165 79.8612C155.668 80.4088 156.984 82.3171 157.473 82.9943L162.18 89.5081C165.431 94.008 170.362 100.348 173.213 104.89L171.088 107.449L170.982 107.442C170.333 106.997 154.504 84.3995 152.993 82.2025C153.545 81.485 154.514 80.5373 155.165 79.8612Z" fill="#EFF0FF"/>
<path d="M130.879 59.9825C131.934 60.2991 136.14 62.3184 137.26 62.8544C138.272 68.9259 137.087 74.0148 131.647 77.4045C130.945 77.6731 126.814 75.0392 125.926 74.5361C131.993 71.3036 132.068 66.0629 130.879 59.9825Z" fill="#EFF0FF"/>
<path d="M239.291 52.7091C240.149 52.9378 242.463 54.6112 243.349 55.2122C239.117 59.9044 234.998 64.7755 230.76 69.496L230.433 69.5691C229.18 68.6891 228.086 67.9148 226.893 66.9511C229.788 63.0383 235.909 56.5097 239.291 52.7091Z" fill="#EFF0FF"/>
<path d="M228.898 71.0409C229.117 70.9941 229.6 70.996 229.846 70.9883L230.152 71.3064C230.387 72.4538 230.158 74.1283 230.118 75.4155C229.824 75.1566 229.387 74.6697 229.101 74.3717L226.333 71.4248C227.16 71.2723 228.061 71.1605 228.898 71.0409Z" fill="#EFF0FF"/>
<path d="M228.898 71.0409C229.117 70.9941 229.6 70.996 229.846 70.9883L230.152 71.3064C230.387 72.4538 230.158 74.1283 230.118 75.4155C229.824 75.1566 229.387 74.6697 229.101 74.3717L226.333 71.4248C227.16 71.2723 228.061 71.1605 228.898 71.0409Z" fill="#DCE1FF"/>
<path d="M224.805 67.7464C226.004 67.5351 228.316 68.5897 228.69 69.7286C228.303 70.1338 227.934 70.0486 227.258 70.1342L225.302 70.3389C224.68 69.6249 223.62 68.8524 223.414 68.1268C223.786 67.7282 224.137 67.8211 224.805 67.7464Z" fill="#EFF0FF"/>
<path d="M145.807 79.6932C147.16 79.5581 148.257 80.1061 148.829 81.3813L148.409 81.3437C147.327 80.9811 145.681 80.8437 144.829 80.2818L144.952 80.0001L145.807 79.6932Z" fill="#DCE1FF"/>
</g>
<rect x="0.75" y="0.75" width="354.5" height="210.5" rx="19.25" stroke="#2962FF" stroke-opacity="0.2" stroke-width="1.5"/>
<defs>
<clipPath id="clip0_5609_147">
<rect width="356" height="212" rx="20" fill="white"/>
</clipPath>
<clipPath id="clip1_5609_147">
<rect width="523" height="408.285" fill="white" transform="translate(-81 -44.1909)"/>
</clipPath>
</defs>
</svg>
