<svg width="124" height="124" viewBox="0 0 124 124" fill="none" xmlns="http://www.w3.org/2000/svg">
<g clip-path="url(#clip0_1853_17)">
<rect width="124" height="124" rx="62" fill="white"/>
<path d="M62.2322 108.21C36.5823 108.21 15.7903 87.4177 15.7903 61.7678C15.7903 36.1179 36.5823 15.3258 62.2322 15.3258C87.8821 15.3258 108.674 36.1179 108.674 61.7678C108.674 78.7563 99.5483 93.613 85.9362 101.708L97.2402 113.012C113.407 101.824 124 83.1497 124 62C124 27.7584 96.2417 0 62 0C27.7584 0 0 27.7584 0 62C0 96.2417 27.7584 124 62 124C68.5112 124 74.7901 122.992 80.6836 121.13L67.4662 107.913C65.7479 108.108 64.0016 108.21 62.2322 108.21Z" fill="#2962FF"/>
<path d="M74.7856 91.1956C85.4255 86.2495 92.7726 75.4703 92.7726 63.1028C92.7726 46.0633 78.9375 32.3304 62.0002 32.3304C45.0628 32.3304 31.2277 46.1608 31.2277 63.1028C31.2277 76.0323 39.1461 87.0576 50.3711 91.6693L62.7014 79.3389L62.7107 79.3482L62.8268 79.2321L74.7856 91.1909V91.1956Z" fill="#2962FF"/>
<path d="M75.1386 90.91L63.1798 78.9512L63.0637 79.0673L74.9807 90.9843C75.0318 90.9611 75.0828 90.9333 75.1339 90.91H75.1386Z" fill="#2962FF"/>
</g>
<defs>
<clipPath id="clip0_1853_17">
<rect width="124" height="124" rx="62" fill="white"/>
</clipPath>
</defs>
</svg>
