<svg width="271" height="36" viewBox="0 0 271 36" fill="none" xmlns="http://www.w3.org/2000/svg">
<g clip-path="url(#clip0_1982_5805)">
<path d="M18.1643 31.0946C10.8958 31.0946 5.00394 25.2027 5.00394 17.9343C5.00394 10.6658 10.8958 4.77394 18.1643 4.77394C25.4327 4.77394 31.3246 10.6658 31.3246 17.9343C31.3246 22.7483 28.7386 26.9583 24.8813 29.2522L28.0845 32.4554C32.6657 29.2851 35.6675 23.9933 35.6675 18.0001C35.6675 8.29697 27.8016 0.43103 18.0985 0.43103C8.39535 0.43103 0.529419 8.29697 0.529419 18.0001C0.529419 27.7032 8.39535 35.5691 18.0985 35.5691C19.9436 35.5691 21.7228 35.2836 23.3929 34.7558L19.6474 31.0104C19.1605 31.0657 18.6657 31.0946 18.1643 31.0946Z" fill="#2962FF"/>
<path d="M21.7215 26.2733C24.7365 24.8717 26.8185 21.8172 26.8185 18.3126C26.8185 13.484 22.898 9.59253 18.0985 9.59253C13.2989 9.59253 9.37842 13.5117 9.37842 18.3126C9.37842 21.9764 11.6223 25.1007 14.8031 26.4075L18.2972 22.9134L18.2998 22.9161L18.3327 22.8832L21.7215 26.2719V26.2733Z" fill="#2962FF"/>
<path d="M21.8216 26.1924L18.4328 22.8036L18.3999 22.8365L21.7768 26.2134C21.7913 26.2069 21.8058 26.199 21.8203 26.1924H21.8216Z" fill="#2962FF"/>
<path d="M50.801 29.7114C47.6422 29.7114 45.1635 28.823 43.3647 27.0462C41.5879 25.2693 40.6995 22.7028 40.6995 19.3466V6.34943H44.977V19.1821C44.977 21.5512 45.4815 23.2731 46.4906 24.348C47.5216 25.4229 48.9694 25.9603 50.8339 25.9603C52.6985 25.9603 54.1353 25.4229 55.1444 24.348C56.1535 23.2731 56.658 21.5512 56.658 19.1821V6.34943H60.8697V19.3466C60.8697 22.7028 59.9703 25.2693 58.1716 27.0462C56.3948 28.823 53.9379 29.7114 50.801 29.7114Z" fill="#2962FF"/>
<path d="M67.5184 29.3824V6.34943H71.796V29.3824H67.5184Z" fill="#2962FF"/>
<path d="M89.3449 29.7114C87.5901 29.7114 85.9558 29.4262 84.4422 28.8559C82.9506 28.2636 81.6454 27.441 80.5266 26.3881C79.4298 25.3132 78.5743 24.0519 77.9601 22.6041C77.3459 21.1563 77.0388 19.5769 77.0388 17.8659C77.0388 16.1549 77.3459 14.5755 77.9601 13.1277C78.5743 11.6799 79.4408 10.4295 80.5595 9.37661C81.6783 8.30174 82.9835 7.47914 84.4751 6.9088C85.9668 6.31652 87.601 6.02039 89.3778 6.02039C91.2644 6.02039 92.9863 6.34943 94.5438 7.00751C96.1013 7.64366 97.4174 8.59788 98.4923 9.87017L95.7284 12.4696C94.8948 11.5702 93.9625 10.9012 92.9315 10.4624C91.9005 10.0018 90.7818 9.77146 89.5753 9.77146C88.3688 9.77146 87.261 9.96889 86.252 10.3637C85.2648 10.7586 84.3983 11.318 83.6525 12.0419C82.9286 12.7657 82.3583 13.6213 81.9415 14.6084C81.5467 15.5955 81.3492 16.6813 81.3492 17.8659C81.3492 19.0504 81.5467 20.1363 81.9415 21.1234C82.3583 22.1105 82.9286 22.966 83.6525 23.6899C84.3983 24.4138 85.2648 24.9732 86.252 25.368C87.261 25.7629 88.3688 25.9603 89.5753 25.9603C90.7818 25.9603 91.9005 25.741 92.9315 25.3022C93.9625 24.8416 94.8948 24.1506 95.7284 23.2293L98.4923 25.8616C97.4174 27.112 96.1013 28.0662 94.5438 28.7243C92.9863 29.3824 91.2534 29.7114 89.3449 29.7114Z" fill="#2962FF"/>
<path d="M107.066 23.9532L106.836 18.8859L118.911 6.34943H123.715L113.68 17.0104L111.311 19.6098L107.066 23.9532ZM103.249 29.3824V6.34943H107.527V29.3824H103.249ZM119.306 29.3824L110.488 18.8859L113.318 15.76L124.308 29.3824H119.306Z" fill="#2962FF"/>
<path d="M137.835 29.7114C136.037 29.7114 134.38 29.4153 132.867 28.823C131.353 28.2307 130.037 27.4081 128.918 26.3552C127.8 25.2803 126.933 24.0299 126.319 22.6041C125.705 21.1563 125.398 19.5769 125.398 17.8659C125.398 16.1549 125.705 14.5864 126.319 13.1606C126.933 11.7128 127.8 10.4624 128.918 9.40952C130.037 8.33465 131.353 7.50107 132.867 6.9088C134.38 6.31652 136.026 6.02039 137.803 6.02039C139.601 6.02039 141.246 6.31652 142.738 6.9088C144.252 7.50107 145.568 8.33465 146.687 9.40952C147.805 10.4624 148.672 11.7128 149.286 13.1606C149.9 14.5864 150.207 16.1549 150.207 17.8659C150.207 19.5769 149.9 21.1563 149.286 22.6041C148.672 24.0519 147.805 25.3022 146.687 26.3552C145.568 27.4081 144.252 28.2307 142.738 28.823C141.246 29.4153 139.612 29.7114 137.835 29.7114ZM137.803 25.9603C138.965 25.9603 140.04 25.7629 141.027 25.368C142.014 24.9732 142.87 24.4138 143.594 23.6899C144.318 22.9441 144.877 22.0886 145.272 21.1234C145.689 20.1363 145.897 19.0504 145.897 17.8659C145.897 16.6813 145.689 15.6065 145.272 14.6413C144.877 13.6542 144.318 12.7986 143.594 12.0748C142.87 11.3289 142.014 10.7586 141.027 10.3637C140.04 9.96889 138.965 9.77146 137.803 9.77146C136.64 9.77146 135.565 9.96889 134.578 10.3637C133.613 10.7586 132.757 11.3289 132.011 12.0748C131.287 12.7986 130.717 13.6542 130.3 14.6413C129.906 15.6065 129.708 16.6813 129.708 17.8659C129.708 19.0285 129.906 20.1034 130.3 21.0905C130.717 22.0776 131.287 22.9441 132.011 23.6899C132.735 24.4138 133.591 24.9732 134.578 25.368C135.565 25.7629 136.64 25.9603 137.803 25.9603Z" fill="#2962FF"/>
</g>
<line x1="166" y1="1.25" x2="166" y2="34.75" stroke="#2962FF" stroke-width="2.5" stroke-linecap="round"/>
<path d="M188.158 6.696C190.59 6.696 192.691 7.15467 194.462 8.072C196.254 8.968 197.619 10.2587 198.558 11.944C199.518 13.6293 199.998 15.6133 199.998 17.896C199.998 20.1787 199.518 22.1627 198.558 23.848C197.619 25.512 196.254 26.792 194.462 27.688C192.691 28.5627 190.59 29 188.158 29H181.214V6.696H188.158ZM188.158 26.6C191.038 26.6 193.235 25.8427 194.75 24.328C196.265 22.792 197.022 20.648 197.022 17.896C197.022 15.1227 196.254 12.9573 194.718 11.4C193.203 9.84267 191.017 9.064 188.158 9.064H184.126V26.6H188.158ZM213.951 29.224C211.882 29.224 209.994 28.744 208.287 27.784C206.58 26.8027 205.226 25.448 204.223 23.72C203.242 21.9707 202.751 20.008 202.751 17.832C202.751 15.656 203.242 13.704 204.223 11.976C205.226 10.2267 206.58 8.872 208.287 7.912C209.994 6.93067 211.882 6.44 213.951 6.44C216.042 6.44 217.94 6.93067 219.647 7.912C221.354 8.872 222.698 10.216 223.679 11.944C224.66 13.672 225.151 15.6347 225.151 17.832C225.151 20.0293 224.66 21.992 223.679 23.72C222.698 25.448 221.354 26.8027 219.647 27.784C217.94 28.744 216.042 29.224 213.951 29.224ZM213.951 26.696C215.508 26.696 216.906 26.3333 218.143 25.608C219.402 24.8827 220.383 23.848 221.087 22.504C221.812 21.16 222.175 19.6027 222.175 17.832C222.175 16.04 221.812 14.4827 221.087 13.16C220.383 11.816 219.412 10.7813 218.175 10.056C216.938 9.33067 215.53 8.968 213.951 8.968C212.372 8.968 210.964 9.33067 209.727 10.056C208.49 10.7813 207.508 11.816 206.783 13.16C206.079 14.4827 205.727 16.04 205.727 17.832C205.727 19.6027 206.079 21.16 206.783 22.504C207.508 23.848 208.49 24.8827 209.727 25.608C210.986 26.3333 212.394 26.696 213.951 26.696ZM227.907 17.832C227.907 15.656 228.398 13.704 229.379 11.976C230.361 10.2267 231.694 8.86133 233.379 7.88C235.086 6.89867 236.974 6.408 239.043 6.408C241.475 6.408 243.598 6.99467 245.411 8.168C247.225 9.34133 248.547 11.0053 249.379 13.16H245.891C245.273 11.816 244.377 10.7813 243.203 10.056C242.051 9.33067 240.665 8.968 239.043 8.968C237.486 8.968 236.089 9.33067 234.851 10.056C233.614 10.7813 232.643 11.816 231.939 13.16C231.235 14.4827 230.883 16.04 230.883 17.832C230.883 19.6027 231.235 21.16 231.939 22.504C232.643 23.8267 233.614 24.8507 234.851 25.576C236.089 26.3013 237.486 26.664 239.043 26.664C240.665 26.664 242.051 26.312 243.203 25.608C244.377 24.8827 245.273 23.848 245.891 22.504H249.379C248.547 24.6373 247.225 26.2907 245.411 27.464C243.598 28.616 241.475 29.192 239.043 29.192C236.974 29.192 235.086 28.712 233.379 27.752C231.694 26.7707 230.361 25.416 229.379 23.688C228.398 21.96 227.907 20.008 227.907 17.832ZM260.786 29.224C259.314 29.224 257.991 28.968 256.818 28.456C255.666 27.9227 254.759 27.1973 254.098 26.28C253.437 25.3413 253.095 24.264 253.074 23.048H256.178C256.285 24.0933 256.711 24.9787 257.458 25.704C258.226 26.408 259.335 26.76 260.786 26.76C262.173 26.76 263.261 26.4187 264.05 25.736C264.861 25.032 265.266 24.136 265.266 23.048C265.266 22.1947 265.031 21.5013 264.562 20.968C264.093 20.4347 263.506 20.0293 262.802 19.752C262.098 19.4747 261.149 19.176 259.954 18.856C258.482 18.472 257.298 18.088 256.402 17.704C255.527 17.32 254.77 16.7227 254.13 15.912C253.511 15.08 253.202 13.9707 253.202 12.584C253.202 11.368 253.511 10.2907 254.13 9.352C254.749 8.41333 255.613 7.688 256.722 7.176C257.853 6.664 259.143 6.408 260.594 6.408C262.685 6.408 264.391 6.93067 265.714 7.976C267.058 9.02133 267.815 10.408 267.986 12.136H264.786C264.679 11.2827 264.231 10.536 263.442 9.896C262.653 9.23467 261.607 8.904 260.306 8.904C259.09 8.904 258.098 9.224 257.33 9.864C256.562 10.4827 256.178 11.3573 256.178 12.488C256.178 13.2987 256.402 13.96 256.85 14.472C257.319 14.984 257.885 15.3787 258.546 15.656C259.229 15.912 260.178 16.2107 261.394 16.552C262.866 16.9573 264.05 17.3627 264.946 17.768C265.842 18.152 266.61 18.76 267.25 19.592C267.89 20.4027 268.21 21.512 268.21 22.92C268.21 24.008 267.922 25.032 267.346 25.992C266.77 26.952 265.917 27.7307 264.786 28.328C263.655 28.9253 262.322 29.224 260.786 29.224Z" fill="#2962FF"/>
<defs>
<clipPath id="clip0_1982_5805">
<rect width="150.75" height="36" fill="white"/>
</clipPath>
</defs>
</svg>
